<svg width="101" height="67" viewBox="0 0 101 67" fill="none" xmlns="http://www.w3.org/2000/svg">
<path d="M87.7137 67.0009C80.9365 67.0009 72.7881 60.2821 65.1815 48.245H34.976C26.1461 62.2202 16.5868 69.0286 9.29484 66.4799C7.85016 65.9083 6.53675 65.0491 5.4344 63.9543C4.33206 62.8594 3.4638 61.552 2.88237 60.1112C-1.73369 50.429 -0.562482 31.4585 5.7437 13.9781C6.87507 10.923 8.70362 8.17393 11.084 5.94957C13.4643 3.72521 16.3308 2.08687 19.4555 1.16483C22.5802 0.242787 25.8769 0.0624684 29.0835 0.638213C32.2901 1.21396 35.3182 2.52989 37.9269 4.48136H62.2306C64.8393 2.52989 67.8674 1.21396 71.074 0.638213C74.2806 0.0624684 77.5773 0.242787 80.702 1.16483C83.8267 2.08687 86.6932 3.72521 89.0735 5.94957C91.4539 8.17393 93.2824 10.923 94.4138 13.9781C100.716 31.4585 101.891 50.429 97.2751 60.1112C96.6937 61.552 95.8254 62.8594 94.7231 63.9543C93.6207 65.0491 92.3073 65.9083 90.8626 66.4799C89.8499 66.83 88.7852 67.0062 87.7137 67.0009Z" fill="#34495E"/>
<path d="M93.4136 60.1938C92.337 60.565 91.2055 60.7517 90.0667 60.7461C82.8665 60.7461 74.2095 53.6084 66.1257 40.8128H34.0321C24.6541 55.6612 14.4925 62.903 6.74416 60.1938C4.5542 59.3871 2.67968 57.901 1.39453 55.9529C1.76 57.3855 2.25815 58.7808 2.88251 60.1209C3.46535 61.5593 4.33425 62.8644 5.43652 63.957C6.53879 65.0496 7.85147 65.9069 9.29498 66.4771C16.589 69.0258 26.1462 62.2174 34.9761 48.2422H65.1816C72.7882 60.2834 80.9367 66.998 87.7139 66.998C88.7856 67.002 89.8503 66.8244 90.8628 66.4729C92.3075 65.9013 93.6209 65.0421 94.7232 63.9473C95.8256 62.8524 96.6938 61.545 97.2753 60.1042C97.8996 58.7641 98.3978 57.3688 98.7632 55.9363C97.4807 57.8906 95.6059 59.3827 93.4136 60.1938ZM54.2469 35.7383H45.9109C45.3582 35.7383 44.8281 35.5187 44.4373 35.1279C44.0464 34.7371 43.8269 34.207 43.8269 33.6543C43.8269 33.1016 44.0464 32.5715 44.4373 32.1807C44.8281 31.7899 45.3582 31.5703 45.9109 31.5703H54.2469C54.7996 31.5703 55.3297 31.7899 55.7205 32.1807C56.1113 32.5715 56.3309 33.1016 56.3309 33.6543C56.3309 34.207 56.1113 34.7371 55.7205 35.1279C55.3297 35.5187 54.7996 35.7383 54.2469 35.7383Z" fill="#2C3E50"/>
<path d="M75.087 38.8652C83.7193 38.8652 90.717 31.8675 90.717 23.2353C90.717 14.6032 83.7193 7.60547 75.087 7.60547C66.4548 7.60547 59.457 14.6032 59.457 23.2353C59.457 31.8675 66.4548 38.8652 75.087 38.8652Z" fill="#2C3E50"/>
<path d="M25.0724 37.8242C33.1291 37.8242 39.6604 31.293 39.6604 23.2363C39.6604 15.1797 33.1291 8.64844 25.0724 8.64844C17.0156 8.64844 10.4844 15.1797 10.4844 23.2363C10.4844 31.293 17.0156 37.8242 25.0724 37.8242Z" fill="#2C3E50"/>
<path d="M75.0869 19.0684C76.8134 19.0684 78.2129 17.6688 78.2129 15.9424C78.2129 14.216 76.8134 12.8164 75.0869 12.8164C73.3605 12.8164 71.9609 14.216 71.9609 15.9424C71.9609 17.6688 73.3605 19.0684 75.0869 19.0684Z" fill="#F1C40F"/>
<path d="M75.0869 33.6582C76.8134 33.6582 78.2129 32.2587 78.2129 30.5322C78.2129 28.8058 76.8134 27.4062 75.0869 27.4062C73.3605 27.4062 71.9609 28.8058 71.9609 30.5322C71.9609 32.2587 73.3605 33.6582 75.0869 33.6582Z" fill="#3498DB"/>
<path d="M82.3799 26.3652C84.1064 26.3652 85.5059 24.9657 85.5059 23.2393C85.5059 21.5128 84.1064 20.1133 82.3799 20.1133C80.6535 20.1133 79.2539 21.5128 79.2539 23.2393C79.2539 24.9657 80.6535 26.3652 82.3799 26.3652Z" fill="#2ECC71"/>
<path d="M67.794 26.3652C69.5204 26.3652 70.92 24.9657 70.92 23.2393C70.92 21.5128 69.5204 20.1133 67.794 20.1133C66.0675 20.1133 64.668 21.5128 64.668 23.2393C64.668 24.9657 66.0675 26.3652 67.794 26.3652Z" fill="#E74C3C"/>
<path d="M32.3624 20.1104H28.1944V15.9424C28.1944 15.1133 27.8651 14.3182 27.2789 13.732C26.6926 13.1457 25.8975 12.8164 25.0684 12.8164C24.2394 12.8164 23.4443 13.1457 22.858 13.732C22.2718 14.3182 21.9424 15.1133 21.9424 15.9424V20.1104H17.7744C16.9454 20.1104 16.1503 20.4397 15.564 21.0259C14.9778 21.6122 14.6484 22.4073 14.6484 23.2363C14.6484 24.0654 14.9778 24.8605 15.564 25.4467C16.1503 26.033 16.9454 26.3623 17.7744 26.3623H21.9424V30.5303C21.9424 31.3593 22.2718 32.1544 22.858 32.7407C23.4443 33.3269 24.2394 33.6562 25.0684 33.6562C25.8975 33.6562 26.6926 33.3269 27.2789 32.7407C27.8651 32.1544 28.1944 31.3593 28.1944 30.5303V26.3623H32.3624C33.1915 26.3623 33.9866 26.033 34.5729 25.4467C35.1591 24.8605 35.4884 24.0654 35.4884 23.2363C35.4884 22.4073 35.1591 21.6122 34.5729 21.0259C33.9866 20.4397 33.1915 20.1104 32.3624 20.1104Z" fill="#ECF0F1"/>
</svg>
