<svg width="100" height="100" viewBox="0 0 100 100" fill="none" xmlns="http://www.w3.org/2000/svg">
<rect width="100" height="100" rx="50" fill="white"/>
<path d="M49.8906 67.1359C51.0988 65.9361 53.0595 65.9632 54.2635 67.1672L60.7792 73.6829C60.7991 73.7029 60.8132 73.7279 60.82 73.7553C60.8267 73.7828 60.8258 73.8115 60.8173 73.8384C60.8088 73.8654 60.7931 73.8895 60.7719 73.9081C60.7507 73.9268 60.7248 73.9392 60.697 73.9442L57.6423 74.4902C57.5395 74.5085 57.4448 74.558 57.3709 74.6318C57.2971 74.7057 57.2476 74.8004 57.2293 74.9032L56.6833 77.9578C56.6783 77.9856 56.6659 78.0115 56.6472 78.0327C56.6286 78.0539 56.6045 78.0696 56.5775 78.0781C56.5506 78.0865 56.5219 78.0875 56.4944 78.0807C56.467 78.074 56.442 78.0599 56.422 78.0399L49.8827 71.5007C48.6771 70.2949 48.6797 68.3384 49.8906 67.1359Z" fill="url(#paint0_linear_2959_4307)"/>
<path d="M54.1096 67.1359C52.9014 65.9361 50.9406 65.9632 49.7367 67.1672L43.221 73.6829C43.2011 73.7029 43.1869 73.7279 43.1802 73.7553C43.1735 73.7828 43.1744 73.8115 43.1829 73.8384C43.1914 73.8654 43.207 73.8895 43.2282 73.9081C43.2494 73.9268 43.2753 73.9392 43.3031 73.9442L46.3577 74.4902C46.4605 74.5085 46.5553 74.558 46.6291 74.6318C46.703 74.7057 46.7524 74.8004 46.7708 74.9032L47.3167 77.9578C47.3387 78.0807 47.4898 78.1281 47.5781 78.0399L54.1173 71.5007C55.3231 70.2949 55.3205 68.3384 54.1096 67.1359Z" fill="url(#paint1_linear_2959_4307)"/>
<path d="M78.0625 70.988C80.187 70.8989 81.8972 66.9988 81.8972 62.1975C81.8972 57.3961 80.187 53.496 78.0625 53.4069V53.4023H22.0442C19.8867 53.4023 18.1367 57.3399 18.1367 62.1975C18.1367 67.055 19.8867 70.9926 22.0442 70.9926H78.0625V70.988Z" fill="url(#paint2_linear_2959_4307)"/>
<path d="M78.0594 53.4069V53.4023H26.2122C26.0004 54.9901 25.8789 56.3318 25.8789 56.7796C25.8789 57.0771 26.1199 57.3076 26.4927 57.4725L40.0127 70.9926H78.0594V70.9882C80.1838 70.899 81.8941 66.999 81.8941 62.1976C81.8941 57.3961 80.1838 53.496 78.0594 53.4069Z" fill="url(#paint3_linear_2959_4307)"/>
<path d="M22.0442 70.9926C19.8867 70.9926 18.1367 67.055 18.1367 62.1975C18.1367 57.3399 19.8867 53.4023 22.0442 53.4023C24.2035 53.4023 25.9534 57.3399 25.9534 62.1975C25.9534 67.055 24.2033 70.9926 22.0442 70.9926Z" fill="url(#paint4_linear_2959_4307)"/>
<path d="M22.0442 70.9917C19.8867 70.9917 18.1367 67.0542 18.1367 62.1966C18.1367 61.6437 18.1599 61.1029 18.2029 60.5778C18.2261 60.4345 18.2529 60.2959 18.2834 60.1598C18.3209 59.9945 18.3621 59.8341 18.4067 59.6798C18.437 59.5777 18.4693 59.4781 18.5032 59.3821C18.5211 59.3335 18.5371 59.2861 18.555 59.2398C18.8016 58.586 19.1306 58.0925 19.5041 57.8374C19.6633 57.7281 19.833 57.6612 20.0064 57.6442C20.0355 57.6418 20.0648 57.6406 20.094 57.6406H25.3886C25.7461 58.9701 25.9534 60.5294 25.9534 62.1968C25.9534 62.2356 25.9534 62.2757 25.9516 62.3147C25.9247 67.1174 24.1855 70.9917 22.0442 70.9917Z" fill="url(#paint5_linear_2959_4307)"/>
<path d="M25.9515 62.3147H22.1172C22.1172 62.2759 22.119 62.237 22.119 62.1968C22.119 59.6811 21.2127 57.6406 20.0938 57.6406H25.3884C25.7458 58.9701 25.9532 60.5293 25.9532 62.1968C25.9533 62.2356 25.9533 62.2757 25.9515 62.3147Z" fill="url(#paint6_linear_2959_4307)"/>
<path d="M54.1342 53.4069V53.4023H48.4297V53.4069C50.5541 53.496 52.2644 57.3961 52.2644 62.1975C52.2644 66.9988 50.5541 70.8989 48.4297 70.988V70.9924H54.1342V70.988C56.2586 70.8989 57.9689 66.9988 57.9689 62.1975C57.9687 57.3961 56.2586 53.496 54.1342 53.4069Z" fill="url(#paint7_linear_2959_4307)"/>
<path d="M54.1342 53.4069V53.4023H48.4297V53.4069C50.5541 53.496 52.2644 57.3961 52.2644 62.1975C52.2644 66.9988 50.5541 70.8989 48.4297 70.988V70.9924H54.1342V70.988C56.2586 70.8989 57.9689 66.9988 57.9689 62.1975C57.9687 57.3961 56.2586 53.496 54.1342 53.4069Z" fill="url(#paint8_linear_2959_4307)"/>
<path d="M27.8868 33.5742H72.1431C73.2456 33.5742 74.1394 34.468 74.1394 35.5705V46.575C74.1394 49.5161 72.3382 52.1569 69.6003 53.2306C57.0101 58.1676 43.0199 58.1676 30.4297 53.2306C27.6918 52.1569 25.8906 49.5161 25.8906 46.575V35.5705C25.8905 34.468 26.7843 33.5742 27.8868 33.5742Z" fill="url(#paint9_linear_2959_4307)"/>
<path d="M72.1434 33.5742H28.3047V51.93C28.9314 52.4847 29.6508 52.9249 30.4301 53.2305C43.0202 58.1674 57.0104 58.1674 69.6006 53.2305C72.3387 52.1568 74.1397 49.5159 74.1397 46.5749V35.5704C74.1397 34.468 73.2459 33.5742 72.1434 33.5742Z" fill="url(#paint10_linear_2959_4307)"/>
<path d="M72.1432 33.5742H27.8869C26.7844 33.5742 25.8906 34.468 25.8906 35.5705V36.6214L46.0539 56.7846C54.0699 57.379 62.117 56.1644 69.6004 53.2305C72.3385 52.1568 74.1395 49.5159 74.1395 46.5749V35.5704C74.1395 34.468 73.2457 33.5742 72.1432 33.5742Z" fill="url(#paint11_linear_2959_4307)"/>
<path d="M85.0288 31.519C85.0358 31.294 84.9072 31.0649 84.6408 30.9926L52.9178 22.3868C51.0167 21.8711 49.0125 21.8711 47.1114 22.3868L15.3885 30.9927C15.1221 31.0649 14.9933 31.2941 15.0003 31.5192V33.2459C14.9933 33.471 15.1219 33.7 15.3885 33.7724L47.1113 42.3781C49.0124 42.8939 51.0166 42.8939 52.9177 42.3781L84.6406 33.7724C84.907 33.7002 85.0358 33.471 85.0287 33.2459V31.519H85.0288Z" fill="url(#paint12_linear_2959_4307)"/>
<path d="M47.1122 22.3867L15.3894 30.9926C14.8702 31.1335 14.8702 31.87 15.3894 32.0109L47.1122 40.6167C49.0133 41.1324 51.0175 41.1324 52.9186 40.6167L84.6414 32.0109C85.1606 31.87 85.1606 31.1335 84.6414 30.9926L52.9187 22.3867C51.0176 21.8711 49.0134 21.8711 47.1122 22.3867Z" fill="url(#paint13_linear_2959_4307)"/>
<path d="M47.4188 24.3576L19.0552 32.0521C18.591 32.178 18.591 32.8366 19.0552 32.9626L47.4189 40.6571C49.1187 41.1182 50.9106 41.1182 52.6104 40.6571L80.9741 32.9626C81.4383 32.8367 81.4383 32.1781 80.9741 32.0521L52.6104 24.3576C50.9106 23.8964 49.1186 23.8964 47.4188 24.3576Z" fill="url(#paint14_linear_2959_4307)"/>
<path d="M50.0155 27.2148C48.8156 27.2148 47.822 28.0876 47.6284 29.2323L31.2492 33.6757C29.5134 34.1467 28.1695 35.4509 27.6016 37.0844L47.1123 42.3773C49.0134 42.8931 51.0176 42.8931 52.9187 42.3773L63.3377 39.5508L51.8923 28.1053C51.4477 27.5621 50.7722 27.2148 50.0155 27.2148Z" fill="url(#paint15_linear_2959_4307)"/>
<path d="M28.2465 45.4837C28.1233 45.4837 28.0013 45.4595 27.8876 45.4123C27.7738 45.3652 27.6704 45.2961 27.5833 45.209C27.4962 45.1219 27.4271 45.0185 27.38 44.9048C27.3329 44.791 27.3086 44.669 27.3086 44.5458V38.832C27.3086 36.4265 28.9302 34.3066 31.2518 33.6767L49.8829 28.6224C50.3826 28.4879 50.8979 28.7822 51.0336 29.2819C51.0986 29.522 51.0657 29.7781 50.942 29.9939C50.8184 30.2097 50.6141 30.3675 50.3741 30.4328L31.7428 35.4871C30.2363 35.8957 29.1842 37.2711 29.1842 38.832V44.5458C29.1842 44.7946 29.0854 45.0331 28.9095 45.209C28.7337 45.3849 28.4952 45.4837 28.2465 45.4837Z" fill="url(#paint16_linear_2959_4307)"/>
<path d="M52.4375 29.6387C52.4375 30.9774 47.5898 30.9774 47.5898 29.6387C47.5898 28.3001 48.6751 27.2148 50.0137 27.2148C51.3523 27.2148 52.4375 28.3001 52.4375 29.6387Z" fill="url(#paint17_linear_2959_4307)"/>
<path d="M30.7305 56.781C30.7305 58.1197 25.8828 58.1197 25.8828 56.781C25.8828 55.4423 26.968 46.1094 28.3067 46.1094C29.6453 46.1094 30.7305 55.4423 30.7305 56.781Z" fill="url(#paint18_linear_2959_4307)"/>
<path d="M30.7291 56.7799C30.7291 57.2268 30.1868 57.5252 29.4638 57.6735C28.7512 57.8201 27.8627 57.8201 27.1483 57.6735C27.0375 57.5252 26.9727 57.3443 26.9727 57.1278C26.9727 55.7552 27.5609 46.2593 28.289 46.111C28.294 46.1094 28.3009 46.1094 28.306 46.1094C28.3111 46.1094 28.3179 46.1094 28.323 46.111C29.6548 46.1896 30.7291 55.4466 30.7291 56.7799Z" fill="url(#paint19_linear_2959_4307)"/>
<path d="M29.9268 56.7799C29.9268 57.4176 29.1903 57.7519 28.4161 57.7826C28.3399 57.7843 28.2638 57.7843 28.1876 57.7826C27.0162 57.7622 25.8789 57.4279 25.8789 56.7799C25.8789 55.4483 26.9531 46.2065 28.2832 46.111C28.29 46.1094 28.2968 46.1094 28.3036 46.1094C28.3105 46.1094 28.3172 46.1094 28.3241 46.111C29.2124 46.2542 29.9268 55.4517 29.9268 56.7799Z" fill="url(#paint20_linear_2959_4307)"/>
<path d="M28.3049 47.8443C29.6081 47.8443 30.6646 46.7878 30.6646 45.4846C30.6646 44.1814 29.6081 43.125 28.3049 43.125C27.0018 43.125 25.9453 44.1814 25.9453 45.4846C25.9453 46.7878 27.0018 47.8443 28.3049 47.8443Z" fill="url(#paint21_linear_2959_4307)"/>
<path d="M28.3052 47.4502C29.3928 47.4502 30.2744 46.5686 30.2744 45.481C30.2744 44.3934 29.3928 43.5117 28.3052 43.5117C27.2176 43.5117 26.3359 44.3934 26.3359 45.481C26.3359 46.5686 27.2176 47.4502 28.3052 47.4502Z" fill="url(#paint22_linear_2959_4307)"/>
<path d="M29.3617 43.375C29.5258 43.7026 29.611 44.0641 29.6105 44.4305C29.6105 45.7337 28.5541 46.7902 27.2509 46.7902C26.8715 46.7902 26.5129 46.7005 26.1953 46.5414C26.5827 47.3146 27.3824 47.8455 28.3061 47.8455C29.6093 47.8455 30.6658 46.7891 30.6658 45.4858C30.6658 44.5621 30.1349 43.7625 29.3617 43.375Z" fill="url(#paint23_linear_2959_4307)"/>
<defs>
<linearGradient id="paint0_linear_2959_4307" x1="57.6655" y1="74.4499" x2="54.0494" y2="71.5571" gradientUnits="userSpaceOnUse">
<stop stop-color="#FF7044"/>
<stop offset="1" stop-color="#F92814"/>
</linearGradient>
<linearGradient id="paint1_linear_2959_4307" x1="49.5594" y1="68.1348" x2="48.0375" y2="79.7758" gradientUnits="userSpaceOnUse">
<stop stop-color="#FF7044"/>
<stop offset="1" stop-color="#F92814"/>
</linearGradient>
<linearGradient id="paint2_linear_2959_4307" x1="50.0169" y1="57.5632" x2="50.0169" y2="69.9097" gradientUnits="userSpaceOnUse">
<stop stop-color="#F9F7FC"/>
<stop offset="1" stop-color="#F0DDFC"/>
</linearGradient>
<linearGradient id="paint3_linear_2959_4307" x1="54.8807" y1="63.5809" x2="51.0358" y2="44.2193" gradientUnits="userSpaceOnUse">
<stop stop-color="#F0DDFC" stop-opacity="0"/>
<stop offset="0.289" stop-color="#C8B7E0" stop-opacity="0.289"/>
<stop offset="0.592" stop-color="#A595C8" stop-opacity="0.592"/>
<stop offset="0.84" stop-color="#8F81B8" stop-opacity="0.84"/>
<stop offset="1" stop-color="#8779B3"/>
</linearGradient>
<linearGradient id="paint4_linear_2959_4307" x1="15.0128" y1="62.1974" x2="28.598" y2="62.1974" gradientUnits="userSpaceOnUse">
<stop stop-color="#F0DDFC" stop-opacity="0"/>
<stop offset="0.289" stop-color="#C8B7E0" stop-opacity="0.289"/>
<stop offset="0.592" stop-color="#A595C8" stop-opacity="0.592"/>
<stop offset="0.84" stop-color="#8F81B8" stop-opacity="0.84"/>
<stop offset="1" stop-color="#8779B3"/>
</linearGradient>
<linearGradient id="paint5_linear_2959_4307" x1="16.3224" y1="69.2635" x2="28.9527" y2="56.6332" gradientUnits="userSpaceOnUse">
<stop stop-color="#F0DDFC" stop-opacity="0"/>
<stop offset="0.289" stop-color="#C8B7E0" stop-opacity="0.289"/>
<stop offset="0.592" stop-color="#A595C8" stop-opacity="0.592"/>
<stop offset="0.84" stop-color="#8F81B8" stop-opacity="0.84"/>
<stop offset="1" stop-color="#8779B3"/>
</linearGradient>
<linearGradient id="paint6_linear_2959_4307" x1="22.9008" y1="59.2902" x2="33.1377" y2="67.5491" gradientUnits="userSpaceOnUse">
<stop stop-color="#F9F7FC"/>
<stop offset="1" stop-color="#F0DDFC"/>
</linearGradient>
<linearGradient id="paint7_linear_2959_4307" x1="53.1992" y1="62.4428" x2="53.1992" y2="70.8852" gradientUnits="userSpaceOnUse">
<stop stop-color="#FF7044"/>
<stop offset="1" stop-color="#F92814"/>
</linearGradient>
<linearGradient id="paint8_linear_2959_4307" x1="53.1992" y1="60.2922" x2="53.1992" y2="54.9178" gradientUnits="userSpaceOnUse">
<stop stop-color="#F92814" stop-opacity="0"/>
<stop offset="1" stop-color="#C1272D"/>
</linearGradient>
<linearGradient id="paint9_linear_2959_4307" x1="38.2662" y1="45.2537" x2="70.7947" y2="45.2537" gradientUnits="userSpaceOnUse">
<stop stop-color="#7E8595"/>
<stop offset="1" stop-color="#555A66"/>
</linearGradient>
<linearGradient id="paint10_linear_2959_4307" x1="35.9129" y1="45.2537" x2="28.3365" y2="45.2537" gradientUnits="userSpaceOnUse">
<stop stop-color="#555A66" stop-opacity="0"/>
<stop offset="1" stop-color="#555A66"/>
</linearGradient>
<linearGradient id="paint11_linear_2959_4307" x1="53.8234" y1="55.1156" x2="47.5947" y2="23.8452" gradientUnits="userSpaceOnUse">
<stop stop-color="#555A66" stop-opacity="0"/>
<stop offset="1" stop-color="#555A66"/>
</linearGradient>
<linearGradient id="paint12_linear_2959_4307" x1="50.0145" y1="26.9759" x2="50.0145" y2="41.2666" gradientUnits="userSpaceOnUse">
<stop stop-color="#7E8595"/>
<stop offset="1" stop-color="#555A66"/>
</linearGradient>
<linearGradient id="paint13_linear_2959_4307" x1="42.1481" y1="20.7955" x2="58.8099" y2="43.4694" gradientUnits="userSpaceOnUse">
<stop stop-color="#7E8595"/>
<stop offset="1" stop-color="#555A66"/>
</linearGradient>
<linearGradient id="paint14_linear_2959_4307" x1="49.9623" y1="31.9759" x2="46.5157" y2="-2.99474" gradientUnits="userSpaceOnUse">
<stop stop-color="#BEC3D2" stop-opacity="0"/>
<stop offset="0.558" stop-color="#D4D9E4" stop-opacity="0.558"/>
<stop offset="1" stop-color="#E9EDF5"/>
</linearGradient>
<linearGradient id="paint15_linear_2959_4307" x1="45.2855" y1="37.8393" x2="41.9521" y2="29.1724" gradientUnits="userSpaceOnUse">
<stop stop-color="#555A66" stop-opacity="0"/>
<stop offset="1" stop-color="#555A66"/>
</linearGradient>
<linearGradient id="paint16_linear_2959_4307" x1="34.5896" y1="30.7799" x2="39.9963" y2="38.1373" gradientUnits="userSpaceOnUse">
<stop stop-color="#FFDA45"/>
<stop offset="1" stop-color="#FFA425"/>
</linearGradient>
<linearGradient id="paint17_linear_2959_4307" x1="48.6678" y1="27.9066" x2="51.2018" y2="30.4407" gradientUnits="userSpaceOnUse">
<stop stop-color="#7E8595"/>
<stop offset="1" stop-color="#555A66"/>
</linearGradient>
<linearGradient id="paint18_linear_2959_4307" x1="27.018" y1="51.9776" x2="33.7084" y2="51.8238" gradientUnits="userSpaceOnUse">
<stop stop-color="#FFDA45"/>
<stop offset="1" stop-color="#FFA425"/>
</linearGradient>
<linearGradient id="paint19_linear_2959_4307" x1="29.5793" y1="51.6182" x2="25.0722" y2="53.6878" gradientUnits="userSpaceOnUse">
<stop stop-color="#FFDA45" stop-opacity="0"/>
<stop offset="1" stop-color="#FCEE21"/>
</linearGradient>
<linearGradient id="paint20_linear_2959_4307" x1="26.9026" y1="52.5796" x2="34.7604" y2="49.526" gradientUnits="userSpaceOnUse">
<stop stop-color="#FFDA45" stop-opacity="0"/>
<stop offset="1" stop-color="#B53759"/>
</linearGradient>
<linearGradient id="paint21_linear_2959_4307" x1="27.422" y1="44.6018" x2="30.4781" y2="47.6578" gradientUnits="userSpaceOnUse">
<stop stop-color="#FF7044"/>
<stop offset="1" stop-color="#F92814"/>
</linearGradient>
<linearGradient id="paint22_linear_2959_4307" x1="28.5403" y1="45.7161" x2="26.4049" y2="43.5807" gradientUnits="userSpaceOnUse">
<stop stop-color="#FF7044" stop-opacity="0"/>
<stop offset="1" stop-color="#FFA425"/>
</linearGradient>
<linearGradient id="paint23_linear_2959_4307" x1="28.3881" y1="46.3902" x2="31.6315" y2="40.3578" gradientUnits="userSpaceOnUse">
<stop stop-color="#F92814" stop-opacity="0"/>
<stop offset="1" stop-color="#C1272D"/>
</linearGradient>
</defs>
</svg>
