<svg width="100" height="100" viewBox="0 0 100 100" fill="none" xmlns="http://www.w3.org/2000/svg">
<path d="M50 100C77.6142 100 100 77.6142 100 50C100 22.3858 77.6142 0 50 0C22.3858 0 0 22.3858 0 50C0 77.6142 22.3858 100 50 100Z" fill="#64E1DC"/>
<path d="M99.3937 57.8111L53.4537 11.8711L46.4471 20.575L52.5346 26.6625L40.9113 60.2168L15.3203 74.9621L39.1836 98.8254C42.6668 99.5936 46.2863 99.9986 50.0006 99.9986C74.9572 99.9986 95.6432 81.7145 99.3937 57.8111Z" fill="#00C8C8"/>
<path d="M80.3244 65.8781C79.4725 65.8781 78.665 66.0689 77.9424 66.41L50.8605 48.7188L47.6562 53.6242L74.7393 71.3162C74.7379 71.3659 74.7373 71.4157 74.7373 71.4654C74.7373 74.5512 77.2389 77.0525 80.3244 77.0525C83.41 77.0525 85.9115 74.5512 85.9115 71.4654C85.9115 68.3797 83.4102 65.8781 80.3244 65.8781Z" fill="#414952"/>
<path d="M55.5883 16.2629C55.5883 13.1771 53.0867 10.6758 50.0012 10.6758C46.9156 10.6758 44.4141 13.1771 44.4141 16.2629C44.4141 18.2742 45.477 20.0373 47.0715 21.0211V38.0318H52.9309V21.0211C54.5256 20.0373 55.5883 18.2742 55.5883 16.2629Z" fill="#636978"/>
<path d="M55.5871 16.2666C55.5871 13.1836 53.0818 10.6842 50 10.6797V38.0355H52.9297V21.0246C54.5244 20.0408 55.5871 18.2779 55.5871 16.2666Z" fill="#414952"/>
<path d="M52.3451 53.6242L49.1408 48.7188L22.059 66.41C21.3141 66.0587 20.5005 65.877 19.677 65.8781C16.5912 65.8781 14.0898 68.3795 14.0898 71.4652C14.0898 74.551 16.5912 77.0523 19.677 77.0523C22.7627 77.0523 25.2641 74.551 25.2641 71.4652C25.2641 71.4154 25.2633 71.3656 25.2621 71.316L52.3451 53.6242Z" fill="#636978"/>
<path d="M50 78.2467L71.7131 65.9398V39.4609L50 47.5758V78.2467Z" fill="#FFCE00"/>
<path d="M49.9982 78.2467L28.2852 65.9398V39.4609L49.9982 47.5758V78.2467Z" fill="#FE6A16"/>
<path d="M28.2852 39.4592L49.9982 27.1523L71.7113 39.4592L49.9982 51.7637L28.2852 39.4592Z" fill="#7584F2"/>
<path d="M50 27.1523V51.7637L71.7131 39.4592L50 27.1523Z" fill="#606AEA"/>
</svg>
