<svg width="108" height="100" viewBox="0 0 108 100" fill="none" xmlns="http://www.w3.org/2000/svg">
<path fill-rule="evenodd" clip-rule="evenodd" d="M38.9075 16.3075H103.214L65.0193 42.4914L39.0387 24.6808C40.0279 22.0322 40.0363 19.0383 38.9075 16.3075ZM22.0892 31.5048L31.4625 25.7975C34.2442 24.1039 35.1675 20.4903 33.539 17.6697L25.0768 3.01272C24.2087 1.50887 22.8946 0.541452 21.201 0.159099C19.5071 -0.22348 17.9053 0.0853432 16.475 1.07018L1.04238 11.6955C-6.30354 37.5788 26.7075 93.6149 52.0252 100L68.9432 91.9477C70.5111 91.2016 71.5797 89.9686 72.0953 88.3104C72.6109 86.6523 72.4301 85.0308 71.5618 83.5269L63.0996 68.8699C61.4713 66.0493 57.8801 65.0421 55.0224 66.6043L45.3933 71.8681C35.8706 63.3991 24.6625 43.9862 22.0892 31.5048ZM107.885 19.6749L66.5464 48.0138C65.5792 48.674 64.3365 48.6224 63.4376 47.9765L35.9942 29.1632C35.4657 29.6395 34.8939 30.0655 34.2863 30.4356L28.3578 34.0451C31.4725 44.0971 39.1795 57.446 46.3274 65.1693L52.4177 61.8398C57.8593 58.8652 64.7009 60.7842 67.8016 66.155L73.0496 75.2446H103.617C106.031 75.2446 108.005 73.2699 108.005 70.8564V20.6957C108.005 20.3519 107.965 20.0092 107.885 19.6749Z" fill="url(#paint0_linear_2966_419)"/>
<defs>
<linearGradient id="paint0_linear_2966_419" x1="60" y1="-15" x2="55" y2="92.5" gradientUnits="userSpaceOnUse">
<stop stop-color="#4C6F93"/>
<stop offset="1" stop-color="#2C3E50"/>
</linearGradient>
</defs>
</svg>
