<svg width="101" height="70" viewBox="0 0 101 70" fill="none" xmlns="http://www.w3.org/2000/svg">
<path d="M35.1985 2.1181C32.086 4.15562 26.4922 7.86501 22.8266 7.73376L21.0391 6.47751C21.3891 5.07437 26.4391 3.17749 31.1798 1.31185C33.7235 0.318093 32.6016 0.489967 35.0142 1.27122C35.4673 1.43997 35.561 1.88373 35.1985 2.1181Z" fill="#4C5C75"/>
<path d="M34.2704 0.99907C33.6142 1.24907 32.7016 1.58032 32.3016 1.73658C27.561 3.60221 22.5109 5.4991 22.1609 6.90223L23.336 7.72724C23.1663 7.73531 22.9964 7.7374 22.8266 7.73349L21.0391 6.47723C21.4453 4.85222 28.4922 2.40533 32.7579 0.68657C33.2454 0.489694 33.6423 0.811569 34.2704 0.99907Z" fill="#7F8EB2" fill-opacity="0.25098"/>
<path d="M35.0165 1.27031L34.9009 1.22656C34.8611 1.31296 34.7956 1.38498 34.7134 1.43281C31.5946 3.47658 26.0039 7.18285 22.3383 7.0516L22.1289 6.9016V7.2391L22.8289 7.73285C26.4664 7.8641 31.9602 4.23908 35.2009 2.11719C35.5634 1.87969 35.4727 1.43906 35.0165 1.27031Z" fill="#31445B"/>
<path d="M35.1985 2.11783L34.4953 2.57408L32.2984 1.73658L31.1797 1.31157L32.7578 0.68657C33.2453 0.489694 33.6422 0.811569 34.2703 0.99907L34.8953 1.2272L35.0141 1.27095C35.4672 1.4397 35.561 1.88345 35.1985 2.11783Z" fill="#E9E7FC"/>
<path d="M34.2703 0.99907C33.6141 1.24907 32.7016 1.58032 32.3016 1.73658L31.1797 1.31157L32.7578 0.68657C33.2453 0.489694 33.6422 0.811569 34.2703 0.99907Z" fill="#F8F9FE"/>
<path d="M35.1992 2.11719L34.4961 2.57345L33.5273 2.2047C34.6774 1.45469 34.8211 1.41094 34.8992 1.22656L35.0149 1.27031C35.468 1.43906 35.5617 1.88282 35.1992 2.11719Z" fill="#D0CEF2"/>
<path d="M65.6444 2.11851C68.7569 4.15602 74.3507 7.86542 78.0163 7.73417L79.8039 6.47792C79.3976 4.85291 72.3507 2.40602 68.085 0.687255C67.5631 0.477878 67.1975 0.827879 65.8288 1.27163C65.3756 1.44038 65.2819 1.88414 65.6444 2.11851Z" fill="#4C5C75"/>
<path d="M66.5703 0.99907C67.2266 1.24907 68.1391 1.58032 68.5391 1.73658C73.2797 3.60221 78.3298 5.4991 78.6798 6.90223L77.5048 7.72724C77.6766 7.73661 77.8485 7.73661 78.0141 7.73349L79.8017 6.47723C79.3954 4.85222 72.3485 2.40533 68.0828 0.68657C67.5953 0.489694 67.1984 0.811569 66.5703 0.99907Z" fill="#7F8EB2" fill-opacity="0.25098"/>
<path d="M65.8285 1.27031L65.9442 1.22656C65.9754 1.30156 66.041 1.37969 66.1317 1.43281C69.2504 3.47658 74.8411 7.18285 78.5067 7.0516L78.7161 6.9016V7.2391L78.0161 7.73285C74.3786 7.8641 68.8848 4.23908 65.6442 2.11719C65.2817 1.87969 65.3723 1.43906 65.8285 1.27031Z" fill="#31445B"/>
<path d="M65.6444 2.11783L66.3475 2.57408L69.66 1.31157L68.085 0.68657C67.5975 0.489694 67.2006 0.811569 66.5725 0.99907L65.9475 1.2272L65.8288 1.27095C65.3756 1.4397 65.2819 1.88345 65.6444 2.11783Z" fill="#E9E7FC"/>
<path d="M65.6444 2.11719L66.3475 2.57345L67.3163 2.2047C66.1663 1.45469 66.0225 1.41094 65.9444 1.22656L65.8288 1.27031C65.3756 1.43906 65.2819 1.88282 65.6444 2.11719Z" fill="#D0CEF2"/>
<path d="M76.6352 5.18907C75.4247 4.7388 74.2478 4.20307 73.1133 3.58594C74.9727 4.28594 75.9196 4.82344 76.6352 5.18907Z" fill="white"/>
<path d="M71.1196 56.321L61.457 52.0772L62.6102 47.046C62.6102 47.046 65.6133 46.6209 65.7821 46.6866C65.9508 46.7553 70.1571 48.6303 70.1571 48.6303C70.1571 48.6303 73.4259 50.5303 74.004 50.9397C74.5821 51.3491 75.6071 51.9647 75.6353 52.4491C75.6634 52.9335 75.304 54.8554 74.8352 55.5773C74.3665 56.296 71.1196 56.321 71.1196 56.321Z" fill="#31445B"/>
<path d="M62.6094 43.5797V47.0453L74.8313 53.2454L77.1532 50.936L63.2563 42.8203L62.6094 43.5797Z" fill="#4C5C75"/>
<path d="M62.6094 43.5797V46.1203L65.5625 48.5422L67.5375 45.3203L63.2563 42.8203L62.6094 43.5797Z" fill="#111D33" fill-opacity="0.313726"/>
<path d="M78.5273 55.2047C78.5273 56.0328 79.3742 59.1579 84.8899 57.9016C88.318 57.1203 91.0462 57.2985 91.2524 55.2047C91.3368 54.3734 88.4055 53.6953 84.8868 53.6953C81.3742 53.6953 78.5273 54.3703 78.5273 55.2047Z" fill="#4C5C75"/>
<path d="M78.5273 55.1922V60.0328C78.5273 63.2266 91.2524 63.2266 91.2524 60.0328L91.2493 55.1484C91.2493 57.8578 78.5273 57.8985 78.5273 55.1922Z" fill="#31445B"/>
<path d="M88.6485 56.8297C90.1704 56.4953 91.2485 55.9359 91.2485 55.1484L91.2517 60.0328C91.2517 60.961 90.1735 61.6172 88.6485 62.0047V56.8297ZM83.5235 57.1641C84.7985 57.236 86.1485 57.1985 87.3579 57.0484V62.2579C86.0874 62.4316 84.8022 62.4714 83.5235 62.3766V57.1641ZM78.5266 55.1922C78.5266 56.0484 79.7984 56.6297 81.5391 56.936V62.1016C79.7984 61.7329 78.5234 61.0422 78.5234 60.0328L78.5266 55.1922Z" fill="#1D2943"/>
<path d="M79.5547 50.9062V54.4375C79.5547 56.75 90.2204 56.75 90.2204 54.4375V50.9219C87.6797 51.3219 82.1891 51.6188 79.5547 50.9062Z" fill="#B0B8CF"/>
<path d="M84.2422 51.3375C85.011 51.3375 85.7922 51.3125 86.5391 51.275V56.0907C85.7757 56.1616 85.0085 56.1835 84.2422 56.1563V51.3375ZM82.5203 51.2969V56.0063C80.8422 55.7625 79.5547 55.2375 79.5547 54.4375V50.9062C80.3391 51.1188 81.3797 51.2406 82.5203 51.2969ZM89.0891 51.0688C89.5079 51.025 89.8891 50.975 90.2204 50.9219V54.4375C90.2204 54.9032 89.7829 55.275 89.0891 55.5532V51.0688Z" fill="#9EA9C9"/>
<path d="M79.5586 50.9453C79.5586 51.5422 81.9461 52.0297 84.8868 52.0297C87.8337 52.0297 90.2212 51.5422 90.2212 50.9422C90.2212 50.3391 87.8337 49.8516 84.8868 49.8516C81.9461 49.8516 79.5586 50.3391 79.5586 50.9453Z" fill="#E3E7F0"/>
<path d="M88.2925 48.1484L88.1768 50.0672C88.1768 50.0985 88.1549 50.1234 88.1237 50.1359L83.5205 52.1141C83.2924 52.2078 83.008 52.0516 83.0612 51.8641L83.1862 49.9453C83.1862 49.9453 85.9206 48.5297 85.9549 48.5047C85.9893 48.4797 87.8737 48.1609 87.8737 48.1609L88.2925 48.1484Z" fill="#31445B"/>
<path d="M100.199 42.7197C97.086 44.7603 91.4891 48.4697 87.8266 48.3353L86.0391 47.0791C86.3859 45.6791 91.4391 43.7822 96.1798 41.9134C98.7235 40.9197 97.6016 41.0915 100.011 41.8728C100.464 42.0415 100.561 42.4853 100.199 42.7197Z" fill="#4C5C75"/>
<path d="M99.2704 41.6006C98.6141 41.8506 97.6985 42.1819 97.3016 42.3381C92.561 44.2069 87.5109 46.1007 87.1609 47.5038L88.3359 48.3319C88.1662 48.3379 87.9963 48.3379 87.8266 48.3319L86.0391 47.0819C86.4453 45.4569 93.4922 43.0069 97.7579 41.2881C98.2454 41.0913 98.6423 41.4131 99.2704 41.6006Z" fill="#7F8EB2" fill-opacity="0.25098"/>
<path d="M100.016 41.8719L99.8977 41.8281C99.8585 41.9157 99.7929 41.9888 99.7102 42.0375C96.5946 44.0781 91.0039 47.7875 87.3383 47.6532L87.1289 47.5063V47.8438L87.8289 48.3344C91.4633 48.4657 96.9602 44.8406 100.201 42.7188C100.563 42.4813 100.466 42.0406 100.013 41.875L100.016 41.8719Z" fill="#31445B"/>
<path d="M84.2113 50.0906L83.0457 53.7688C82.8832 54.3844 82.3144 54.8844 81.5207 55.1063L73.8425 57.2688C70.6925 58.0907 70.48 58.3813 69.9237 58.1594L67.0331 56.9938C66.555 56.8001 66.48 56.3157 66.8987 56.0782L77.2207 50.1875C77.6106 49.9729 78.0423 49.845 78.4863 49.8125C79.8207 49.7063 80.7019 49.5594 81.5801 48.9062L84.2113 50.0906Z" fill="#4C5C75"/>
<path d="M84.2113 50.0906L84.1082 50.4281L82.4457 49.2875C80.2988 50.8781 79.1332 50.1938 77.9207 50.8875L67.5987 56.7813C67.4487 56.8688 67.3581 56.9844 67.3362 57.1126L67.0331 56.9938C66.555 56.8001 66.48 56.3157 66.8987 56.0782L77.2207 50.1875C77.6106 49.9729 78.0423 49.845 78.4863 49.8125C79.8207 49.7063 80.7019 49.5594 81.5801 48.9062L84.2113 50.0906Z" fill="#7F8EB2" fill-opacity="0.25098"/>
<path d="M84.213 50.0953L83.0473 53.7735C82.8848 54.3891 82.3161 54.8891 81.5223 55.111L73.8442 57.2735C70.6941 58.0954 70.4816 58.386 69.9254 58.1641L67.0347 56.9985C66.6722 56.8516 66.5441 56.536 66.6847 56.2922C68.7504 57.0641 69.066 57.411 69.6254 57.2579L80.5817 54.1672C81.3754 53.9485 81.9442 53.4485 82.1036 52.8328L83.1255 49.6016L84.213 50.0953Z" fill="#31445B"/>
<path d="M73.8425 57.2719C70.6925 58.0938 70.48 58.3844 69.9237 58.1625L67.3362 57.1156L67.0331 56.9969C66.555 56.8031 66.48 56.3188 66.8987 56.0813L68.4081 55.2188L72.0144 56.5844C72.3362 56.7063 74.1644 57.3969 73.8425 57.2719Z" fill="#DEDFFB"/>
<path d="M73.8446 57.2734C70.6945 58.0953 70.482 58.3859 69.9258 58.1641L68.6602 57.6547L72.0164 56.5859C72.3383 56.7078 74.1664 57.3984 73.8446 57.2734Z" fill="#D0CEF2"/>
<path d="M84.2113 50.0906L83.0457 53.7688C82.8832 54.3844 82.3144 54.8844 81.5207 55.1063L73.8425 57.2688C70.6925 58.0907 70.48 58.3813 69.9237 58.1594L67.0331 56.9938C66.555 56.8001 66.48 56.3157 66.8987 56.0782L77.2207 50.1875C77.6106 49.9729 78.0423 49.845 78.4863 49.8125C79.8207 49.7063 80.6644 49.5719 81.5426 48.9219L84.2113 50.0906Z" fill="#4C5C75"/>
<path d="M84.2113 50.0906L84.1082 50.4281L82.4457 49.2875C80.2988 50.8781 79.1332 50.1938 77.9207 50.8875L67.5987 56.7813C67.4487 56.8688 67.3581 56.9844 67.3362 57.1126L67.0331 56.9938C66.555 56.8001 66.48 56.3157 66.8987 56.0782L77.2207 50.1875C77.6106 49.9729 78.0423 49.845 78.4863 49.8125C79.8207 49.7063 80.6644 49.5719 81.5426 48.9219L84.2113 50.0906Z" fill="#7F8EB2" fill-opacity="0.25098"/>
<path d="M84.213 50.0953L83.0473 53.7735C82.8848 54.3891 82.3161 54.8891 81.5223 55.111L73.8442 57.2735C70.6941 58.0954 70.4816 58.386 69.9254 58.1641L67.0347 56.9985C66.6722 56.8516 66.5441 56.536 66.6847 56.2922C68.7504 57.0641 69.066 57.411 69.6254 57.2579L80.5817 54.1672C81.3754 53.9485 81.9442 53.4485 82.1036 52.8328L83.1255 49.6016L84.213 50.0953Z" fill="#31445B"/>
<path d="M100.199 42.7197C97.086 44.7603 91.4891 48.4697 87.8266 48.3353L86.0391 47.0791C86.3859 45.6791 91.4391 43.7822 96.1798 41.9134C98.7235 40.9197 97.6016 41.0915 100.011 41.8728C100.464 42.0415 100.561 42.4853 100.199 42.7197Z" fill="#4C5C75"/>
<path d="M99.2704 41.6006C98.6141 41.8506 97.6985 42.1819 97.3016 42.3381C92.561 44.2069 87.5109 46.1007 87.1609 47.5038L88.3359 48.3319C88.1662 48.3379 87.9963 48.3379 87.8266 48.3319L86.0391 47.0819C86.4453 45.4569 93.4922 43.0069 97.7579 41.2881C98.2454 41.0913 98.6423 41.4131 99.2704 41.6006Z" fill="#7F8EB2" fill-opacity="0.25098"/>
<path d="M100.016 41.8719L99.8977 41.8281C99.8585 41.9157 99.7929 41.9888 99.7102 42.0375C96.5946 44.0781 91.0039 47.7875 87.3383 47.6532L87.1289 47.5063V47.8438L87.8289 48.3344C91.4633 48.4657 96.9602 44.8406 100.201 42.7188C100.563 42.4813 100.466 42.0406 100.013 41.875L100.016 41.8719Z" fill="#31445B"/>
<path d="M73.8425 57.2719C70.6925 58.0938 70.48 58.3844 69.9237 58.1625L67.3362 57.1156L67.0331 56.9969C66.555 56.8031 66.48 56.3188 66.8987 56.0813L68.4081 55.2188L72.0144 56.5844C72.3362 56.7063 74.1644 57.3969 73.8425 57.2719Z" fill="#DEDFFB"/>
<path d="M73.8446 57.2734C70.6945 58.0953 70.482 58.3859 69.9258 58.1641L68.6602 57.6547L72.0164 56.5859C72.3383 56.7078 74.1664 57.3984 73.8446 57.2734Z" fill="#D0CEF2"/>
<path d="M100.198 42.7194L99.4953 43.1756L97.2984 42.3381L96.1797 41.9131C96.7109 41.7038 97.2391 41.4975 97.7547 41.2881C98.2453 41.0913 98.6422 41.4131 99.2703 41.6006L99.8953 41.8288L100.011 41.8725C100.464 42.0413 100.561 42.485 100.198 42.7194Z" fill="#E9E7FC"/>
<path d="M99.2703 41.6006C98.6141 41.8506 97.6984 42.1819 97.3016 42.3381L96.1797 41.9131C96.7109 41.7038 97.2391 41.4975 97.7547 41.2881C98.2453 41.0913 98.6422 41.4131 99.2703 41.6006Z" fill="#E9E7FC"/>
<path d="M100.199 42.7188L99.4961 43.175L98.5273 42.8063C99.6774 42.0563 99.818 42.0125 99.8961 41.8281L100.012 41.8719C100.465 42.0406 100.562 42.4844 100.199 42.7188Z" fill="#D0CEF2"/>
<path d="M81.5232 49.2927L83.7826 50.224C83.8763 50.2646 83.9888 50.2646 84.0763 50.224L88.1701 48.3177C88.3451 48.2302 88.3326 48.0365 88.1451 47.9583L86.0826 47.0708C86.0697 47.0653 86.0559 47.0625 86.0419 47.0625C86.028 47.0625 86.0142 47.0653 86.0013 47.0708L81.5075 48.9302C81.32 49.0084 81.3263 49.2115 81.5232 49.2927Z" fill="#4C5C75"/>
<path d="M86.1098 48.3438C86.8848 48.3438 86.8754 47.5938 86.1098 47.5938C85.3379 47.5938 85.3285 48.3438 86.1098 48.3438Z" fill="#111D33"/>
<path d="M85.6484 47.9672C85.6484 48.3047 86.5703 48.3047 86.5703 47.9672C86.5703 47.8266 86.3641 47.7109 86.1078 47.7109C85.8516 47.7109 85.6484 47.8266 85.6484 47.9672Z" fill="white"/>
<path d="M85.6484 47.9672C85.6484 47.9859 85.6516 48.0078 85.6609 48.0297C85.7641 47.7609 86.4547 47.7609 86.5578 48.0297C86.5662 48.0099 86.5704 47.9887 86.5703 47.9672C86.5703 47.8266 86.3641 47.7109 86.1078 47.7109C85.8516 47.7109 85.6484 47.8266 85.6484 47.9672Z" fill="#DEDFFB"/>
<path d="M83.2637 49.7344C84.0449 49.7344 84.0324 48.9844 83.2637 48.9844C82.4949 48.9844 82.4856 49.7344 83.2637 49.7344Z" fill="#111D33"/>
<path d="M82.8047 49.3578C82.8047 49.6953 83.7266 49.6953 83.7266 49.3578C83.7266 49.2172 83.5203 49.1016 83.2641 49.1016C83.0078 49.1016 82.8047 49.2172 82.8047 49.3578Z" fill="white"/>
<path d="M82.8047 49.3578C82.8047 49.3766 82.8078 49.3953 82.8172 49.4172C82.9203 49.1516 83.6109 49.1516 83.7141 49.4172C83.7223 49.3974 83.7266 49.3761 83.7266 49.3547C83.7266 49.2172 83.5203 49.1016 83.2641 49.1016C83.0078 49.1016 82.8047 49.2172 82.8047 49.3578Z" fill="#DEDFFB"/>
<path d="M84.7039 49.1859C85.8071 49.1859 85.7946 48.1172 84.7039 48.1172C83.6102 48.1172 83.5977 49.1859 84.7039 49.1859Z" fill="#111D33"/>
<path d="M84.0469 48.6516C84.0469 48.8516 84.3375 49.0141 84.7031 49.0141C85.0656 49.0141 85.3563 48.8516 85.3563 48.6516C85.3563 48.4516 85.0656 48.2891 84.7 48.2891C84.3375 48.2891 84.0469 48.4516 84.0469 48.6516Z" fill="white"/>
<path d="M84.0469 48.6547C84.0469 48.6828 84.0531 48.7109 84.0656 48.7391C84.2125 48.3641 85.1906 48.3641 85.3375 48.7391C85.3491 48.7124 85.3554 48.6838 85.3563 48.6547C85.3563 48.4547 85.0656 48.2891 84.7 48.2891C84.3344 48.2891 84.0469 48.4547 84.0469 48.6547Z" fill="#DEDFFB"/>
<path d="M59.875 16.4578L59.975 21.161C59.975 21.161 61.5438 22.2547 61.7688 22.3079C61.9938 22.3547 65.3282 22.0829 67.1188 21.161C68.9126 20.2391 70.9751 19.6422 71.0751 19.5453C71.1751 19.4453 73.1407 18.5703 73.1407 18.5703C73.1407 18.5703 76.2564 18.0485 76.3282 17.8266C76.4032 17.6016 75.1782 14.5859 75.1782 14.5859L59.875 16.4578Z" fill="#4C5C75"/>
<path d="M59.875 16.4594L59.9656 20.6094L64.5907 19.8532L66.0657 15.7031L59.875 16.4594Z" fill="#111D33" fill-opacity="0.313726"/>
<path d="M76.5048 15.8672L62.2422 20.6141V25.661L78.5204 19.7641L78.0704 16.6516" fill="#31445B"/>
<path d="M75.0625 14.475C75.0625 15.3063 75.8188 18.4313 80.7375 17.175C83.7969 16.3938 86.2282 16.5688 86.4126 14.475C86.4876 13.6469 83.8719 12.9688 80.7375 12.9688C77.6031 12.9688 75.0625 13.6438 75.0625 14.475Z" fill="#4C5C75"/>
<path d="M75.0625 14.4625V19.3063C75.0625 22.4969 86.4126 22.4969 86.4126 19.3063V14.4219C86.4126 17.1313 75.0625 17.1719 75.0625 14.4625Z" fill="#1D2943"/>
<path d="M84.7219 15.9297C85.7376 15.5859 86.4126 15.0891 86.4126 14.4297L86.4157 19.3141C86.4157 20.0891 85.7407 20.6766 84.7219 21.0766V15.9297ZM79.0719 16.4078C80.2 16.5141 81.425 16.5016 82.5469 16.3766V21.5954C81.425 21.736 80.2032 21.7422 79.0719 21.611V16.4078ZM75.0656 14.4703C75.0656 15.1766 75.8375 15.6953 76.9813 16.0297V21.1579C75.8375 20.761 75.0625 20.1453 75.0625 19.3141L75.0656 14.4703Z" fill="#31445B"/>
<path d="M75.9805 10.1875V13.7188C75.9805 16.0282 85.493 16.0282 85.493 13.7188V10.2031C83.2274 10.6 78.3274 10.9 75.9805 10.1875Z" fill="#B0B8CF"/>
<path d="M82.9774 10.5C83.82 10.4393 84.6594 10.3403 85.493 10.2031V13.7188C85.493 14.4969 84.4118 15.0125 82.9774 15.2657V10.5ZM79.4274 10.6094C80.193 10.625 80.9868 10.6125 81.7555 10.5781V15.4125C80.9801 15.467 80.2015 15.4586 79.4274 15.3875V10.6094ZM77.6992 10.5031V15.0844C76.6805 14.7969 75.9805 14.3438 75.9805 13.7188V10.1875C76.4586 10.3344 77.0492 10.4375 77.6992 10.5031Z" fill="#9EA9C9"/>
<path d="M75.9836 10.2188C75.9836 10.8188 78.1086 11.3063 80.7336 11.3063C83.3649 11.3063 85.493 10.8188 85.493 10.2188C85.493 9.61563 83.3649 9.125 80.7367 9.125C78.1117 9.125 75.9836 9.61563 75.9836 10.2188Z" fill="#E3E7F0"/>
<path d="M77.4961 7.44531L77.6148 9.3672C77.6148 9.39533 77.6336 9.42033 77.668 9.43283C78.1992 9.6672 82.2711 11.411 82.2711 11.411C82.4993 11.5047 82.7805 11.3485 82.7274 11.161L82.6055 9.2422C82.6055 9.2422 79.868 7.82657 79.8336 7.80157C79.1967 7.67818 78.5581 7.56358 77.918 7.45781L77.4961 7.44531Z" fill="#31445B"/>
<path d="M84.2668 8.60054L82.0074 9.52867C81.961 9.54862 81.9111 9.55891 81.8605 9.55891C81.81 9.55891 81.7601 9.54862 81.7137 9.52867L77.6199 7.62241C77.4449 7.53491 77.4574 7.34116 77.6449 7.26303L79.7105 6.37553C79.7234 6.37002 79.7372 6.36719 79.7512 6.36719C79.7651 6.36719 79.779 6.37002 79.7918 6.37553L84.2856 8.23491C84.4731 8.31304 84.4637 8.51616 84.2668 8.59741V8.60054Z" fill="#4C5C75"/>
<path d="M79.1328 7.15625C79.1328 6.65625 80.2953 6.65625 80.2953 7.15625C80.2953 7.65626 79.1328 7.65626 79.1328 7.15625Z" fill="#111D33"/>
<path d="M80.1727 7.15391C80.1727 7.49141 79.2539 7.49141 79.2539 7.15391C79.2539 6.81328 80.1727 6.81328 80.1727 7.15391Z" fill="white"/>
<path d="M80.1719 7.15469C80.1726 7.17489 80.1694 7.19505 80.1625 7.21406C80.0563 6.94844 79.3688 6.94844 79.2625 7.21406C79.2542 7.19428 79.2499 7.17303 79.25 7.15156C79.25 6.81406 80.175 6.81406 80.175 7.15156L80.1719 7.15469Z" fill="#DEDFFB"/>
<path d="M82.5527 8.91407C81.7746 8.91407 81.784 8.16406 82.5527 8.16406C83.3215 8.16406 83.334 8.91407 82.5527 8.91407Z" fill="#111D33"/>
<path d="M83.0156 8.53438C83.0156 8.875 82.0938 8.875 82.0938 8.53438C82.0938 8.19687 83.0156 8.19687 83.0156 8.53438Z" fill="white"/>
<path d="M83.0158 8.53438C83.0158 8.55583 83.0116 8.57707 83.0033 8.59688C82.8971 8.33125 82.2096 8.32812 82.1033 8.59688C82.0961 8.57688 82.0929 8.55563 82.094 8.53438C82.094 8.19687 83.0158 8.19687 83.0158 8.53438Z" fill="#DEDFFB"/>
<path d="M81.1168 8.37344C80.0137 8.37344 80.023 7.30469 81.1168 7.30469C82.2106 7.30469 82.2199 8.37344 81.1168 8.37344Z" fill="#111D33"/>
<path d="M81.7703 7.83438C81.7703 8.03438 81.4797 8.19688 81.1172 8.19688C80.7516 8.19688 80.4609 8.03438 80.4609 7.83438C80.4609 7.63437 80.7516 7.46875 81.1172 7.46875C81.4797 7.46875 81.7734 7.63437 81.7734 7.83438H81.7703Z" fill="white"/>
<path d="M81.7711 7.83438C81.7711 7.8625 81.7649 7.89063 81.7555 7.91875C81.6055 7.54375 80.6305 7.54375 80.4805 7.91875C80.47 7.89187 80.4647 7.86324 80.4648 7.83438C80.4648 7.63437 80.7523 7.46875 81.118 7.46875C81.4805 7.46875 81.7742 7.63437 81.7742 7.83438H81.7711Z" fill="#DEDFFB"/>
<path d="M96.2695 15.0578L98.507 16.5141L98.807 16.3922C99.2883 16.2016 99.3602 15.7172 98.9445 15.4797L97.432 14.6172L96.2695 15.0578Z" fill="#E9E7FC"/>
<path d="M81.6328 9.49063L82.7984 13.1719C82.9578 13.7844 83.5297 14.2875 84.3235 14.5063L92.0016 16.6719L95.2767 17.5969C95.8579 17.7563 96.1329 17.4094 98.8079 16.3938C99.2892 16.2032 99.3611 15.7188 98.9454 15.4813L97.4329 14.6188C88.2922 9.51876 88.6329 9.32501 87.3579 9.21563C86.0203 9.10626 85.211 8.91563 84.3328 8.26562L81.6328 9.49063Z" fill="#4C5C75"/>
<path d="M98.9439 15.4782L97.4313 14.6188C88.2907 9.51876 88.6282 9.32501 87.3563 9.21563C86.0219 9.10626 85.2094 8.91563 84.3313 8.26562L83.375 8.7L83.3938 8.69063C85.5188 10.2625 86.7313 9.60938 87.9188 10.2906L98.2407 16.1813C98.397 16.2719 98.4845 16.3876 98.5064 16.5157L98.8064 16.3938C99.2876 16.2032 99.3595 15.7188 98.9439 15.4813V15.4782Z" fill="#7F8EB2" fill-opacity="0.25098"/>
<path d="M81.6328 9.49063L82.7984 13.1719C82.9578 13.7844 83.5297 14.2875 84.3235 14.5063L92.0016 16.6719L95.2767 17.5969C95.8579 17.7563 96.1329 17.4094 98.8079 16.3938C99.1736 16.25 99.3017 15.9344 99.1611 15.6907C97.0954 16.4625 96.7798 16.8094 96.2204 16.6563L85.2641 13.5625C84.4703 13.3438 83.9016 12.8438 83.7422 12.2313L82.7172 9L81.6328 9.49063Z" fill="#31445B"/>
<path d="M92 16.6703C95.15 17.4922 95.3625 17.7828 95.9156 17.561L98.8063 16.3922C99.2876 16.2016 99.3594 15.7172 98.9438 15.4797L97.4313 14.6172L93.8281 15.9797L92 16.6703Z" fill="#DEDFFB"/>
<path d="M92 16.6703L95.275 17.5953C95.8063 17.7422 96.1188 17.4266 97.1813 17.0516L93.8281 15.9766L92 16.6641V16.6703Z" fill="#D0CEF2"/>
<path d="M100.198 42.7194L99.4953 43.1756L97.2984 42.3381L96.1797 41.9131C96.7109 41.7038 97.2391 41.4975 97.7547 41.2881C98.2453 41.0913 98.6422 41.4131 99.2703 41.6006L99.8953 41.8288L100.011 41.8725C100.464 42.0413 100.561 42.485 100.198 42.7194Z" fill="#E9E7FC"/>
<path d="M99.2703 41.6006C98.6141 41.8506 97.6984 42.1819 97.3016 42.3381L96.1797 41.9131C96.7109 41.7038 97.2391 41.4975 97.7547 41.2881C98.2453 41.0913 98.6422 41.4131 99.2703 41.6006Z" fill="#E9E7FC"/>
<path d="M100.199 42.7188L99.4961 43.175L98.5273 42.8063C99.6774 42.0563 99.818 42.0125 99.8961 41.8281L100.012 41.8719C100.465 42.0406 100.562 42.4844 100.199 42.7188Z" fill="#D0CEF2"/>
<path d="M29.7242 56.321L39.3868 52.0772L38.2337 47.046C38.2337 47.046 35.2305 46.6209 35.0618 46.6866C34.893 46.7553 30.6867 48.6303 30.6867 48.6303C30.6867 48.6303 27.418 50.5303 26.8398 50.9397C26.2617 51.3491 25.2367 51.9647 25.2086 52.4491C25.1805 52.9335 25.5398 54.8554 26.0086 55.5773C26.4773 56.296 29.7274 56.321 29.7274 56.321H29.7242Z" fill="#31445B"/>
<path d="M38.2353 43.5797V47.0453L26.0133 53.2454L23.6914 50.936L37.5884 42.8203L38.2353 43.5797Z" fill="#4C5C75"/>
<path d="M38.2328 43.5797V46.1203L34.8516 48.7672L33.3047 45.3203L37.586 42.8203L38.2328 43.5797Z" fill="#111D33" fill-opacity="0.313726"/>
<path d="M22.3167 55.2047C22.3167 56.0328 21.4698 59.1579 15.9542 57.9016C12.526 57.1203 9.79787 57.2985 9.59162 55.2047C9.50725 54.3734 12.4385 53.6953 15.9573 53.6953C19.4698 53.6953 22.3167 54.3703 22.3167 55.2047Z" fill="#4C5C75"/>
<path d="M22.3149 55.1922V60.0328C22.3149 63.2266 9.58984 63.2266 9.58984 60.0328L9.59297 55.1484C9.59297 57.8578 22.3149 57.8985 22.3149 55.1922Z" fill="#31445B"/>
<path d="M12.193 56.8297C10.6711 56.4953 9.59297 55.9359 9.59297 55.1484L9.58984 60.0328C9.58984 60.961 10.668 61.6172 12.193 62.0047V56.8297ZM17.318 57.1641C16.043 57.236 14.693 57.1985 13.4836 57.0484V62.2579C14.693 62.4297 16.0461 62.4704 17.318 62.3766V57.1641ZM22.3149 55.1922C22.3149 56.0484 21.043 56.6297 19.3024 56.936V62.1016C21.043 61.7329 22.3181 61.0422 22.3181 60.0328L22.3149 55.1922Z" fill="#1D2943"/>
<path d="M21.2868 50.9062V54.4375C21.2868 56.75 10.6211 56.75 10.6211 54.4375V50.9219C13.1617 51.3219 18.6524 51.6188 21.2868 50.9062Z" fill="#B0B8CF"/>
<path d="M16.5993 51.3375C15.8305 51.3375 15.0492 51.3125 14.3024 51.275V56.0907C15.043 56.1625 15.8305 56.1844 16.5993 56.1563V51.3375ZM18.3211 51.2969V56.0063C19.9993 55.7625 21.2868 55.2375 21.2868 54.4375V50.9062C20.314 51.1363 19.3204 51.2672 18.3211 51.2969ZM11.7524 51.0688C11.3742 51.0281 10.9971 50.9791 10.6211 50.9219V54.4375C10.6211 54.9032 11.0586 55.275 11.7524 55.5532V51.0688Z" fill="#9EA9C9"/>
<path d="M21.2837 50.9453C21.2837 51.5422 18.8962 52.0297 15.9555 52.0297C13.0086 52.0297 10.6211 51.5422 10.6211 50.9422C10.6211 50.3391 13.0086 49.8516 15.9555 49.8516C18.8962 49.8516 21.2837 50.3391 21.2837 50.9453Z" fill="#E3E7F0"/>
<path d="M12.5508 48.1484L12.6664 50.0672C12.6664 50.0985 12.6883 50.1234 12.7195 50.1359L17.3227 52.1141C17.5508 52.2078 17.8352 52.0516 17.7821 51.8641L17.6571 49.9453C17.6571 49.9453 14.9227 48.5297 14.8883 48.5047C14.8539 48.4797 12.9695 48.1609 12.9695 48.1609L12.5508 48.1484Z" fill="#31445B"/>
<path d="M0.643214 42.7201C3.75574 44.7607 9.35265 48.4701 13.0152 48.3357L14.8027 47.0795C14.3964 45.4545 7.34951 43.0076 3.08386 41.2888C2.5651 41.0794 2.19635 41.4294 0.830715 41.8732C0.377587 42.0419 0.280712 42.4857 0.643214 42.7201Z" fill="#4C5C75"/>
<path d="M1.57031 41.6006C2.22657 41.8506 3.1422 42.1819 3.53908 42.3381C8.27973 44.2069 13.3298 46.1007 13.6798 47.5038L12.5048 48.3319C12.6766 48.3382 12.8485 48.3382 13.0141 48.3319L14.8017 47.0819C14.3954 45.4569 7.34848 43.0069 3.08282 41.2881C2.59532 41.0913 2.19844 41.4131 1.57031 41.6006Z" fill="#7F8EB2" fill-opacity="0.25098"/>
<path d="M0.82759 41.8719L0.946341 41.8281C0.977591 41.9031 1.04009 41.9812 1.13384 42.0375C4.24949 44.0781 9.84015 47.7875 13.5058 47.6532L13.7152 47.5063V47.8438L13.0152 48.3344C9.38077 48.4657 3.88386 44.8406 0.643214 42.7188C0.280712 42.4813 0.377587 42.0406 0.830715 41.875L0.82759 41.8719Z" fill="#31445B"/>
<path d="M16.6328 50.0906L17.7984 53.7688C17.9609 54.3844 18.5297 54.8844 19.3235 55.1063L27.0016 57.2688C30.1517 58.0907 30.3642 58.3813 30.9204 58.1594L33.8111 56.9938C34.2892 56.8001 34.3642 56.3157 33.9454 56.0782L23.6235 50.1875C23.2335 49.9729 22.8018 49.845 22.3579 49.8125C21.0235 49.7063 20.1422 49.5594 19.2641 48.9062L16.6328 50.0906Z" fill="#4C5C75"/>
<path d="M16.6328 50.0906L16.7359 50.4281L18.3984 49.2875C20.5453 50.8781 21.711 50.1938 22.9235 50.8875C33.8548 57.2001 33.4423 56.7501 33.5079 57.1126L33.8111 56.9938C34.2892 56.8001 34.3642 56.3157 33.9454 56.0782L23.6235 50.1875C23.2335 49.9729 22.8018 49.845 22.3579 49.8125C21.0235 49.7063 20.1422 49.5594 19.2641 48.9062L16.6328 50.0906Z" fill="#7F8EB2" fill-opacity="0.25098"/>
<path d="M16.6328 50.0953L17.7984 53.7735C17.9609 54.3891 18.5297 54.8891 19.3235 55.111L27.0016 57.2735C30.1517 58.0954 30.3642 58.386 30.9204 58.1641L33.8111 56.9985C34.1736 56.8516 34.3017 56.536 34.1611 56.2922C32.0954 57.0641 31.7798 57.411 31.2204 57.2579L20.2641 54.1672C19.4703 53.9485 18.9016 53.4485 18.7422 52.8328L17.7203 49.6016L16.6328 50.0953Z" fill="#31445B"/>
<path d="M26.9988 57.2719C30.1488 58.0938 30.3613 58.3844 30.9176 58.1625L33.5051 57.1156L33.8082 56.9969C34.2863 56.8031 34.3613 56.3188 33.9426 56.0813L32.4332 55.2188L28.8269 56.5844C28.505 56.7063 26.6769 57.3969 26.9988 57.2719Z" fill="#DEDFFB"/>
<path d="M26.9988 57.2734C30.1488 58.0953 30.3613 58.3859 30.9176 58.1641L32.1832 57.6547L28.8269 56.5859C28.505 56.7078 26.6769 57.3984 26.9988 57.2734Z" fill="#D0CEF2"/>
<path d="M16.6328 50.0906L17.7984 53.7688C17.9609 54.3844 18.5297 54.8844 19.3235 55.1063L27.0016 57.2688C30.1517 58.0907 30.3642 58.3813 30.9204 58.1594L33.8111 56.9938C34.2892 56.8001 34.3642 56.3157 33.9454 56.0782L23.6235 50.1875C23.2335 49.9729 22.8018 49.845 22.3579 49.8125C21.0235 49.7063 20.2047 49.5719 19.3266 48.9219L16.6328 50.0906Z" fill="#4C5C75"/>
<path d="M16.6328 50.0906L16.7359 50.4281L18.3984 49.2875C20.5453 50.8781 21.711 50.1938 22.9235 50.8875C33.8548 57.2001 33.4423 56.7501 33.5079 57.1126L33.8111 56.9938C34.2892 56.8001 34.3642 56.3157 33.9454 56.0782L23.6235 50.1875C23.2335 49.9729 22.8018 49.845 22.3579 49.8125C21.0235 49.7063 20.2047 49.5719 19.3266 48.9219L16.6328 50.0906Z" fill="#7F8EB2" fill-opacity="0.25098"/>
<path d="M16.6328 50.0953L17.7984 53.7735C17.9609 54.3891 18.5297 54.8891 19.3235 55.111L27.0016 57.2735C30.1517 58.0954 30.3642 58.386 30.9204 58.1641L33.8111 56.9985C34.1736 56.8516 34.3017 56.536 34.1611 56.2922C32.0954 57.0641 31.7798 57.411 31.2204 57.2579L20.2641 54.1672C19.4703 53.9485 18.9016 53.4485 18.7422 52.8328L17.7203 49.6016L16.6328 50.0953Z" fill="#31445B"/>
<path d="M0.643214 42.7201C3.75574 44.7607 9.35265 48.4701 13.0152 48.3357L14.8027 47.0795C14.3964 45.4545 7.34951 43.0076 3.08386 41.2888C2.5651 41.0794 2.19635 41.4294 0.830715 41.8732C0.377587 42.0419 0.280712 42.4857 0.643214 42.7201Z" fill="#4C5C75"/>
<path d="M1.57031 41.6006C2.22657 41.8506 3.1422 42.1819 3.53908 42.3381C8.27973 44.2069 13.3298 46.1007 13.6798 47.5038L12.5048 48.3319C12.6766 48.3382 12.8485 48.3382 13.0141 48.3319L14.8017 47.0819C14.3954 45.4569 7.34848 43.0069 3.08282 41.2881C2.59532 41.0913 2.19844 41.4131 1.57031 41.6006Z" fill="#7F8EB2" fill-opacity="0.25098"/>
<path d="M0.82759 41.8719L0.946341 41.8281C0.977591 41.9031 1.04009 41.9812 1.13384 42.0375C4.24949 44.0781 9.84015 47.7875 13.5058 47.6532L13.7152 47.5063V47.8438L13.0152 48.3344C9.38077 48.4657 3.88386 44.8406 0.643214 42.7188C0.280712 42.4813 0.377587 42.0406 0.830715 41.875L0.82759 41.8719Z" fill="#31445B"/>
<path d="M26.9988 57.2719C30.1488 58.0938 30.3613 58.3844 30.9176 58.1625L33.5051 57.1156L33.8082 56.9969C34.2863 56.8031 34.3613 56.3188 33.9426 56.0813L32.4332 55.2188L28.8269 56.5844C28.505 56.7063 26.6769 57.3969 26.9988 57.2719Z" fill="#DEDFFB"/>
<path d="M26.9988 57.2734C30.1488 58.0953 30.3613 58.3859 30.9176 58.1641L32.1832 57.6547L28.8269 56.5859C28.505 56.7078 26.6769 57.3984 26.9988 57.2734Z" fill="#D0CEF2"/>
<path d="M0.643214 42.7194L1.34634 43.1756L4.65887 41.9131C4.12761 41.7038 3.60261 41.4975 3.08698 41.2881C2.59635 41.0913 2.19947 41.4131 1.57135 41.6006L0.946341 41.8288L0.830715 41.8725C0.377587 42.0413 0.280712 42.485 0.643214 42.7194Z" fill="#E9E7FC"/>
<path d="M1.57031 41.6006C2.22657 41.8506 3.1422 42.1819 3.53908 42.3381L4.66096 41.9131C4.1297 41.7038 3.60158 41.4975 3.08595 41.2881C2.59532 41.0913 2.19844 41.4131 1.57031 41.6006Z" fill="#E9E7FC"/>
<path d="M0.643214 42.7188L1.34634 43.175L2.3151 42.8063C1.16509 42.0563 1.02447 42.0125 0.946341 41.8281L0.830715 41.8719C0.377587 42.0406 0.280712 42.4844 0.643214 42.7188Z" fill="#D0CEF2"/>
<path d="M19.3215 49.2927L17.0621 50.224C17.0157 50.2439 16.9657 50.2542 16.9152 50.2542C16.8647 50.2542 16.8148 50.2439 16.7684 50.224L12.6746 48.3177C12.4996 48.2302 12.5121 48.0365 12.6996 47.9583L14.7621 47.0708C14.7749 47.0653 14.7888 47.0625 14.8027 47.0625C14.8167 47.0625 14.8305 47.0653 14.8433 47.0708L19.3371 48.9302C19.5246 49.0084 19.5184 49.2115 19.3215 49.2927Z" fill="#4C5C75"/>
<path d="M14.734 48.3438C13.959 48.3438 13.9684 47.5938 14.734 47.5938C15.5059 47.5938 15.5152 48.3438 14.734 48.3438Z" fill="#111D33"/>
<path d="M15.1953 47.9672C15.1953 48.3047 14.2734 48.3047 14.2734 47.9672C14.2734 47.8266 14.4797 47.7109 14.7359 47.7109C14.9922 47.7109 15.1953 47.8266 15.1953 47.9672Z" fill="white"/>
<path d="M15.1953 47.9672C15.1953 47.9886 15.1911 48.0099 15.1828 48.0297C15.0797 47.7609 14.3891 47.7609 14.2859 48.0297C14.2776 48.0099 14.2734 47.9887 14.2734 47.9672C14.2734 47.8266 14.4797 47.7109 14.7359 47.7109C14.9922 47.7109 15.1953 47.8266 15.1953 47.9672Z" fill="#DEDFFB"/>
<path d="M17.5774 49.7344C16.7961 49.7344 16.8086 48.9844 17.5774 48.9844C18.3461 48.9844 18.3555 49.7344 17.5774 49.7344Z" fill="#111D33"/>
<path d="M18.0352 49.357C18.0352 49.6945 17.1133 49.6945 17.1133 49.357C17.1133 49.0164 18.0352 49.0164 18.0352 49.357Z" fill="white"/>
<path d="M18.0352 49.3578C18.0348 49.3782 18.0306 49.3984 18.0227 49.4172C17.9195 49.1516 17.2289 49.1516 17.1258 49.4172C17.1174 49.3974 17.1132 49.3761 17.1133 49.3547C17.1133 49.2172 17.3195 49.1016 17.5758 49.1016C17.832 49.1016 18.0352 49.2172 18.0352 49.3578Z" fill="#DEDFFB"/>
<path d="M15.3164 48.6539C15.3164 47.9383 16.9633 47.9383 16.9633 48.6539C16.9633 49.3602 15.3164 49.3602 15.3164 48.6539Z" fill="#111D33"/>
<path d="M16.7977 48.6516C16.7977 48.8516 16.507 49.0141 16.1414 49.0141C15.7789 49.0141 15.4883 48.8516 15.4883 48.6516C15.4883 48.4516 15.7789 48.2891 16.1445 48.2891C16.507 48.2891 16.7977 48.4516 16.7977 48.6516Z" fill="white"/>
<path d="M16.7977 48.6547C16.7977 48.6828 16.7914 48.7109 16.7789 48.7391C16.632 48.3641 15.6539 48.3641 15.507 48.7391C15.4955 48.7124 15.4891 48.6838 15.4883 48.6547C15.4883 48.4547 15.7789 48.2891 16.1445 48.2891C16.507 48.2891 16.7977 48.4547 16.7977 48.6547Z" fill="#DEDFFB"/>
<path d="M40.9683 16.4578L40.8683 21.161C40.8683 21.161 39.2995 22.2547 39.0745 22.3079C38.8495 22.3547 35.5151 22.0829 33.7245 21.161C31.9307 20.2391 29.8682 19.6422 29.7682 19.5453C29.6682 19.4453 27.7025 18.5703 27.7025 18.5703C27.7025 18.5703 24.5869 18.0485 24.515 17.8266C24.44 17.6016 25.665 14.5859 25.665 14.5859L40.9683 16.4578Z" fill="#4C5C75"/>
<path d="M40.968 16.4594L40.8774 20.6094L35.7867 19.7407L34.7773 15.7031L40.968 16.4594Z" fill="#111D33" fill-opacity="0.313726"/>
<path d="M24.3399 15.8672L38.6025 20.6141V25.661L22.3242 19.7641L22.7742 16.6516" fill="#31445B"/>
<path d="M25.7813 14.475C25.7813 15.3063 25.0251 18.4313 20.1063 17.175C17.0469 16.3938 14.6156 16.5688 14.4313 14.475C14.3563 13.6469 16.9719 12.9688 20.1063 12.9688C23.2407 12.9688 25.7813 13.6438 25.7813 14.475Z" fill="#4C5C75"/>
<path d="M25.7798 14.4625V19.3063C25.7798 22.4969 14.4297 22.4969 14.4297 19.3063V14.4219C14.4297 17.1313 25.7798 17.1719 25.7798 14.4625Z" fill="#1D2943"/>
<path d="M16.1234 15.9219C15.1078 15.5781 14.4328 15.0813 14.4328 14.4219L14.4297 19.3063C14.4297 20.0813 15.1047 20.6688 16.1234 21.0688V15.9219ZM21.7735 16.4C20.617 16.5057 19.4529 16.4952 18.2985 16.3688V21.5875C19.4203 21.7282 20.6422 21.7344 21.7735 21.6032V16.4ZM25.7798 14.4625C25.7798 15.1688 25.0079 15.6875 23.8641 16.0219V21.15C25.0079 20.7532 25.7829 20.1375 25.7829 19.3063L25.7798 14.4625Z" fill="#31445B"/>
<path d="M24.8641 10.1875V13.7188C24.8641 16.0282 15.3516 16.0282 15.3516 13.7188V10.2031C17.6172 10.6 22.5172 10.9 24.8641 10.1875Z" fill="#B0B8CF"/>
<path d="M17.8672 10.5C17.0246 10.4393 16.1852 10.3403 15.3516 10.2031V13.7188C15.3516 14.4969 16.4328 15.0125 17.8672 15.2657V10.5ZM21.4172 10.6094C20.6516 10.625 19.8578 10.6125 19.0891 10.5781V15.4125C19.8547 15.4688 20.661 15.4594 21.4172 15.3875V10.6094ZM23.1454 10.5031V15.0844C24.1641 14.7969 24.8641 14.3438 24.8641 13.7188V10.1875C24.3019 10.3437 23.7266 10.4515 23.1454 10.5031Z" fill="#9EA9C9"/>
<path d="M24.861 10.2188C24.861 10.8188 22.736 11.3063 20.111 11.3063C17.4797 11.3063 15.3516 10.8188 15.3516 10.2188C15.3516 9.61563 17.4797 9.125 20.1078 9.125C22.7329 9.125 24.8641 9.61563 24.8641 10.2188H24.861Z" fill="#E3E7F0"/>
<path d="M23.3472 7.44531L23.2285 9.3672C23.2285 9.39533 23.2097 9.42033 23.1753 9.43283C22.6441 9.6672 18.5722 11.411 18.5722 11.411C18.344 11.5047 18.0628 11.3485 18.1159 11.161L18.2378 9.2422C18.2378 9.2422 20.9753 7.82657 21.0097 7.80157C21.0409 7.77657 22.9253 7.45781 22.9253 7.45781L23.3472 7.44531Z" fill="#31445B"/>
<path d="M16.5756 8.60123L18.835 9.52936C18.9287 9.56998 19.0381 9.56998 19.1287 9.52936L23.2225 7.6231C23.3975 7.53559 23.385 7.34184 23.1975 7.26372L21.135 6.37621C21.1217 6.37026 21.1073 6.36719 21.0928 6.36719C21.0783 6.36719 21.0639 6.37026 21.0506 6.37621L16.5568 8.2356C16.3693 8.31373 16.3787 8.51685 16.5756 8.5981V8.60123Z" fill="#4C5C75"/>
<path d="M21.7133 7.15625C21.7133 6.65625 20.5508 6.65625 20.5508 7.15625C20.5508 7.65626 21.7133 7.65626 21.7133 7.15625Z" fill="#111D33"/>
<path d="M20.6711 7.15391C20.6711 7.49141 21.5899 7.49141 21.5899 7.15391C21.5899 6.81328 20.6711 6.81328 20.6711 7.15391Z" fill="white"/>
<path d="M20.6711 7.15469C20.6711 7.17344 20.6711 7.19531 20.6805 7.21406C20.7867 6.94844 21.4742 6.94844 21.5805 7.21406C21.5888 7.19428 21.5931 7.17303 21.593 7.15156C21.593 6.81406 20.668 6.81406 20.668 7.15156L20.6711 7.15469Z" fill="#DEDFFB"/>
<path d="M18.8734 8.53906C18.8734 8.03906 17.7109 8.03906 17.7109 8.53906C17.7109 9.03907 18.8734 9.03907 18.8734 8.53906Z" fill="#111D33"/>
<path d="M17.8281 8.53438C17.8281 8.875 18.75 8.875 18.75 8.53438C18.75 8.19687 17.8281 8.19687 17.8281 8.53438Z" fill="white"/>
<path d="M17.8281 8.53438C17.8281 8.55625 17.8344 8.575 17.8406 8.59688C17.9469 8.33125 18.6344 8.32812 18.7406 8.59688C18.7479 8.57688 18.7511 8.55563 18.75 8.53438C18.75 8.19687 17.8281 8.19687 17.8281 8.53438Z" fill="#DEDFFB"/>
<path d="M20.5484 7.83907C20.5484 7.12656 18.8984 7.12656 18.8984 7.83907C18.8984 8.54845 20.5484 8.54845 20.5484 7.83907Z" fill="#111D33"/>
<path d="M19.0695 7.83438C19.0695 8.03438 19.3602 8.19688 19.7227 8.19688C20.0883 8.19688 20.3789 8.03438 20.3789 7.83438C20.3789 7.63437 20.0883 7.46875 19.7227 7.46875C19.3602 7.46875 19.0664 7.63437 19.0664 7.83438H19.0695Z" fill="white"/>
<path d="M19.0695 7.83438C19.0695 7.8625 19.0758 7.89063 19.0852 7.91875C19.2352 7.54375 20.2102 7.54375 20.3602 7.91875C20.3707 7.89187 20.376 7.86324 20.3758 7.83438C20.3758 7.63437 20.0883 7.46875 19.7227 7.46875C19.3602 7.46875 19.0664 7.63437 19.0664 7.83438H19.0695Z" fill="#DEDFFB"/>
<path d="M4.57607 15.0578L2.33856 16.5141L2.03855 16.3922C1.5573 16.2016 1.48543 15.7172 1.90105 15.4797L3.41356 14.6172L4.57607 15.0578Z" fill="#E9E7FC"/>
<path d="M19.2137 9.49063L18.048 13.1719C17.8887 13.7844 17.3168 14.2875 16.523 14.5063L5.56983 17.6001C4.98857 17.7563 4.71357 17.4063 2.03855 16.3938C1.5573 16.2032 1.48543 15.7188 1.90105 15.4813L3.41356 14.6188C12.5543 9.51876 12.2136 9.32501 13.4886 9.21563C14.8261 9.10626 15.6355 8.91563 16.5137 8.26562L19.2137 9.49063Z" fill="#4C5C75"/>
<path d="M17.4668 8.69688L16.5137 8.26562C15.6355 8.91563 14.8261 9.10938 13.4886 9.21563C12.2136 9.32501 12.5449 9.52501 3.41356 14.6219L1.90105 15.4813C1.48543 15.7188 1.5573 16.2001 2.03855 16.3938L2.33856 16.5157C2.40106 16.1625 2.81356 16.1094 4.11357 15.3219C13.2636 10.2156 12.9168 10.0281 14.1918 9.91564C15.3734 9.82894 16.505 9.40364 17.4512 8.69063L17.4668 8.69688Z" fill="#7F8EB2" fill-opacity="0.25098"/>
<path d="M19.2129 9.49063L18.0473 13.1719C17.8879 13.7844 17.316 14.2875 16.5223 14.5063L5.56907 17.6001C4.98781 17.7563 4.71281 17.4063 2.03779 16.3938C1.67217 16.25 1.54404 15.9344 1.68467 15.6907C3.75031 16.4625 4.06593 16.8094 4.62531 16.6563L15.5816 13.5625C16.3754 13.3438 16.9441 12.8438 17.1035 12.2313L18.1285 9L19.2129 9.49063Z" fill="#31445B"/>
<path d="M8.84485 16.6703C5.69483 17.4922 5.48233 17.7828 4.9292 17.561L2.03855 16.3922C1.5573 16.2016 1.48543 15.7172 1.90105 15.4797L3.41356 14.6172L7.01671 15.9797L7.04171 15.9891L8.84485 16.6703Z" fill="#DEDFFB"/>
<path d="M8.84144 16.6703L5.56642 17.5953C5.03516 17.7422 4.72266 17.4266 3.66016 17.0516L7.0133 15.9766L7.0383 15.9859L8.84144 16.6703Z" fill="#D0CEF2"/>
<path d="M0.643214 42.7194L1.34634 43.1756L4.65887 41.9131C4.12761 41.7038 3.60261 41.4975 3.08698 41.2881C2.59635 41.0913 2.19947 41.4131 1.57135 41.6006L0.946341 41.8288L0.830715 41.8725C0.377587 42.0413 0.280712 42.485 0.643214 42.7194Z" fill="#E9E7FC"/>
<path d="M1.57031 41.6006C2.22657 41.8506 3.1422 42.1819 3.53908 42.3381L4.66096 41.9131C4.1297 41.7038 3.60158 41.4975 3.08595 41.2881C2.59532 41.0913 2.19844 41.4131 1.57031 41.6006Z" fill="#E9E7FC"/>
<path d="M0.643214 42.7188L1.34634 43.175L2.3151 42.8063C1.16509 42.0563 1.02447 42.0125 0.946341 41.8281L0.830715 41.8719C0.377587 42.0406 0.280712 42.4844 0.643214 42.7188Z" fill="#D0CEF2"/>
<path d="M41.6038 60.7892V62.2798L39.8756 62.3642C39.2319 62.3642 38.6694 61.9985 38.5194 61.4767C37.8725 59.2673 36.7818 55.3329 35.2068 53.8829C35.0678 53.7549 34.9579 53.5985 34.8846 53.4244C34.8113 53.2502 34.7762 53.0624 34.7818 52.8735L35.0068 46.9453L35.6225 47.3203L38.4162 49.9016C38.4162 49.9016 40.6725 53.4641 40.6725 53.7704C40.6725 54.0954 41.56 60.4767 41.6038 60.7892Z" fill="#4C5C75"/>
<path d="M41.6031 60.7922V62.2828L39.875 62.3672C39.2313 62.3672 38.6688 62.0016 38.5188 61.4797C38.266 60.6036 37.9993 59.7316 37.7188 58.8641C38.9094 58.5516 40.3469 58.1922 41.2157 57.9766L41.6031 60.7922Z" fill="#31445B"/>
<path d="M65.6813 52.8704C65.6892 53.0597 65.6556 53.2485 65.5827 53.4234C65.5098 53.5983 65.3994 53.7552 65.2594 53.8829C63.3094 55.6829 62.1844 61.0798 61.8656 61.6798C61.7322 61.8958 61.544 62.0727 61.32 62.1923C61.096 62.312 60.8444 62.3702 60.5906 62.361L58.8594 62.2767V60.7892C58.9031 60.4673 59.7938 54.0579 59.7938 53.7672C59.7938 53.461 62.05 49.8985 62.05 49.8985L64.8438 47.3203H65.5313L65.6813 52.8704Z" fill="#4C5C75"/>
<path d="M61.867 59.3733V61.6827C61.7336 61.8988 61.5453 62.0756 61.3213 62.1953C61.0974 62.3149 60.8457 62.3732 60.592 62.364L58.8607 62.2796V60.7921L59.0638 59.314C60.3326 59.3015 61.867 59.3733 61.867 59.3733ZM56.5482 59.6358C56.5169 67.3984 56.6294 67.0078 56.4482 67.389C56.2263 67.9109 55.6263 68.2796 54.9232 68.2796H44.9637C44.2606 68.2796 43.6606 67.9109 43.4387 67.389C43.2575 67.0046 43.37 67.3796 43.3356 59.639L56.5482 59.6358Z" fill="#31445B"/>
<path d="M43.82 59.6328V66.3579C43.8179 66.7357 43.6829 67.1008 43.4387 67.3891C43.2575 67.0016 43.37 67.3766 43.3356 59.6328H43.82Z" fill="#111D33" fill-opacity="0.501961"/>
<path d="M43.3344 59.6328V66.3579C43.3344 67.1516 42.5594 67.7922 41.6031 67.7922C40.6938 67.7922 39.875 67.1829 39.875 66.3547V59.6359L43.3344 59.6328Z" fill="#1D2943"/>
<path d="M56.5477 59.6328C56.5164 67.3954 56.6289 67.0047 56.4477 67.386C56.2035 67.0976 56.0685 66.7326 56.0664 66.3547V59.6359L56.5477 59.6328Z" fill="#111D33" fill-opacity="0.501961"/>
<path d="M60.0133 59.6328V66.3579C60.0133 67.1516 59.2383 67.7922 58.2789 67.7922C57.3695 67.7922 56.5508 67.1829 56.5508 66.3547V59.6359L60.0133 59.6328Z" fill="#1D2943"/>
<path d="M39.875 59.6328H43.3375V60.9016H39.875V59.6328ZM39.875 62.4516H43.3375V63.6641H39.875V62.4516ZM39.875 65.4641V66.3579C39.875 67.1485 40.6469 67.7922 41.6031 67.7922C42.5594 67.7922 43.3344 67.1485 43.3344 66.3579V65.4641H39.875ZM56.5501 59.6328H60.0126V60.9016H56.5501V59.6328ZM56.5501 62.4516H60.0126V63.6641H56.5501V62.4516ZM56.547 65.4641V66.3579C56.547 67.1485 57.3251 67.7922 58.2814 67.7922C59.2345 67.7922 60.0095 67.1485 60.0095 66.3579V65.4641H56.547Z" fill="#7F8EB2" fill-opacity="0.188235"/>
<path d="M37.5324 53.3581C36.0417 50.5175 34.7761 48.5768 34.9448 45.1612L35.9636 14.3485C35.9636 6.31092 64.2544 6.31092 64.2544 14.3485L66.02 43.2862C66.1954 45.2465 65.8084 47.2161 64.9044 48.9643L62.6763 53.3487C62.4888 53.7112 62.0606 53.9487 61.5856 53.9487H38.6167C38.148 53.9487 37.7199 53.7175 37.5324 53.3581Z" fill="#C9CEE2"/>
<path d="M44.4243 53.9472H38.6181C38.1431 53.9472 37.7181 53.7159 37.5337 53.3597C36.8462 51.7597 34.743 49.244 34.943 45.1596L35.9649 14.3469C35.9649 9.77188 45.1212 7.80624 53.015 8.43437C47.0337 8.9125 41.7743 10.8781 41.7743 14.3469L40.7556 45.1596C40.5524 49.2253 42.6087 51.6597 43.34 53.3597C43.4521 53.5452 43.6117 53.6974 43.8024 53.8007C43.993 53.904 44.2077 53.9545 44.4243 53.9472Z" fill="#E3E7F0"/>
<path d="M64.9072 48.9646L62.679 53.3491C62.4946 53.7147 62.0634 53.9491 61.5915 53.9491H56.4758C56.9508 53.9491 57.3821 53.7147 57.5696 53.3491L59.7946 48.9646C60.6992 47.2167 61.0852 45.2466 60.9071 43.2865L59.1446 14.3488C59.1446 10.8144 53.6758 8.83627 47.5508 8.40814C55.3696 7.86438 64.2571 9.84565 64.2571 14.3488L66.0197 43.2865C66.1978 45.2466 65.8118 47.2167 64.9072 48.9646Z" fill="#B0B8CF"/>
<path d="M62.9752 54.0713C62.9752 54.0713 62.8283 54.1275 62.6939 54.1713V57.4401C62.6939 58.3401 61.8377 59.0744 60.7814 59.0744H39.3375C38.2813 59.0744 37.4188 58.3401 37.4188 57.4401V53.9213L37.2344 53.8838L37.4688 53.3838L37.5344 53.2463C37.6349 53.0909 37.7743 52.9613 37.9387 52.8764C38.1032 52.7914 38.287 52.7509 38.4719 52.7588L61.6533 52.8088C62.0345 52.815 62.372 52.9869 62.547 53.2494H62.5533L62.5689 53.2807L62.6314 53.3994L62.9752 54.0713Z" fill="#1D2943"/>
<path d="M63.0853 54.4656V58.2C63.0853 59.1032 62.201 59.8344 61.1103 59.8344H39.0102C37.9164 59.8344 37.0352 59.1032 37.0352 58.2V54.4094C37.0352 53.9156 37.5195 53.5156 38.1164 53.5156L62.0072 53.5719C62.601 53.5719 63.0853 53.9719 63.0853 54.4656Z" fill="#1D2943"/>
<path d="M39.875 59.6328H60.0126V60.2297H39.875V59.6328Z" fill="#111D33" fill-opacity="0.376471"/>
<path d="M63.0853 54.4656V58.2C63.0853 59.1032 62.201 59.8344 61.1103 59.8344H39.0102C37.9164 59.8344 37.0352 59.1032 37.0352 58.2V54.4094C37.0352 53.9156 37.5195 53.5156 38.1164 53.5156L62.0072 53.5719C62.601 53.5719 63.0853 53.9719 63.0853 54.4656Z" fill="#7F8EB2"/>
<path d="M39.0078 59.275C38.2891 59.275 37.7109 58.7938 37.7109 58.2V54.4094C37.7109 54.225 37.8891 54.0781 38.1109 54.0781L62.0017 54.1313C62.2236 54.1313 62.4049 54.2813 62.4049 54.4656V58.2C62.4049 58.7938 61.8236 59.275 61.108 59.275H39.0078Z" fill="#1D2943"/>
<path d="M62.3986 58.2563C62.3674 58.825 61.7986 59.275 61.1111 59.275H39.0078C38.2953 59.275 37.7109 58.7938 37.7109 58.2V54.4125C37.7109 54.225 37.8953 54.0781 38.1172 54.0781H38.1516V57.4469C38.1516 58.0407 38.7328 58.5219 39.4484 58.5219C62.4736 58.4188 61.7049 58.7594 62.3986 58.2563Z" fill="#111D33"/>
<path d="M56.5485 67.0563C56.5485 68.3813 53.5891 69.4532 49.9391 69.4532C46.2985 69.4532 43.3359 68.3813 43.3359 67.0563C43.3359 65.7344 46.2985 64.6562 49.9391 64.6562C53.5891 64.6562 56.5517 65.7344 56.5517 67.0563H56.5485Z" fill="#4C5C75"/>
<path d="M49.9352 69.0485C46.3289 69.0485 43.8164 67.9953 43.8164 67.0484C43.8164 66.1016 46.3289 65.0547 49.9352 65.0547C53.5477 65.0547 56.0602 66.1078 56.0602 67.0516C56.0602 67.9953 53.5477 69.0485 49.9352 69.0485Z" fill="#1D2943"/>
<path d="M49.9391 68.5344C47.2516 68.5344 45.3828 67.7531 45.3828 67.05C45.3828 66.3469 47.2547 65.5625 49.9391 65.5625C52.6266 65.5625 54.4954 66.3438 54.4954 67.05C54.4954 67.7563 52.6235 68.5344 49.9391 68.5344Z" fill="#31445B"/>
<path d="M49.9391 68.0188C48.2016 68.0188 46.9922 67.5094 46.9922 67.0563C46.9922 66.6 48.2016 66.0938 49.9391 66.0938C51.6766 66.0938 52.8891 66.6 52.8891 67.0563C52.8891 67.5094 51.6766 68.0188 49.9391 68.0188Z" fill="#111D33"/>
<path d="M51.6805 67.4234C51.0648 67.4234 51.0648 66.6609 51.6805 66.6609C52.293 66.6609 52.293 67.4234 51.6805 67.4234ZM52.3742 66.6578C52.0617 66.6578 52.0617 66.2734 52.3742 66.2734C52.6867 66.2734 52.6867 66.6578 52.3742 66.6578Z" fill="white"/>
<path d="M53.7972 9.75C60.066 11.7625 58.391 20.2969 58.3597 25.4157C57.441 20.2282 59.4972 12.55 53.7972 9.75ZM68.0504 19.6782L66.9848 20.4001L67.9098 19.5032C68.0223 19.3938 67.9442 19.1813 67.8035 19.1563L65.4848 18.7126L67.8442 18.7438C67.991 18.7501 68.1067 18.5563 68.0192 18.4282L67.2973 17.3625L68.1942 18.2876C68.3035 18.4001 68.5129 18.3251 68.5379 18.1813L68.9848 15.8625L68.9504 18.2219C68.9473 18.3688 69.1379 18.4844 69.2692 18.3969L70.3317 17.6719L69.4098 18.5719C69.2973 18.6813 69.3754 18.8907 69.516 18.9157L71.8348 19.3626L69.4723 19.3282C69.3285 19.3251 69.2098 19.5157 69.3004 19.6469L70.0223 20.7126L69.1254 19.7876C69.016 19.6751 68.8067 19.7501 68.7785 19.8938L68.3317 22.2126L68.3692 19.8501C68.3692 19.7032 68.1817 19.5907 68.0504 19.6782ZM76.6661 51.7034C75.6348 52.3597 74.5036 52.9753 73.2598 53.5378C74.9411 52.4815 75.9411 52.0534 76.6661 51.7034ZM11.8219 11.0219C10.7394 11.7241 9.60844 12.3486 8.4375 12.8906C10.1094 11.8156 11.1031 11.375 11.8219 11.0219ZM28.3908 53.9878C27.1955 53.5008 26.0363 52.9296 24.922 52.2784C26.7595 53.0347 27.6908 53.6003 28.3908 53.9878Z" fill="white"/>
</svg>
