<svg width="103" height="101" viewBox="0 0 103 101" fill="none" xmlns="http://www.w3.org/2000/svg">
<path d="M51.0566 0.328125C22.8634 0.328125 0 23.2809 0 51.5953C0 74.2418 14.6295 93.4542 34.9271 100.239C37.4802 100.712 38.4121 99.1286 38.4121 97.769C38.4121 96.5499 38.3674 93.3266 38.3419 89.05C24.14 92.1457 21.1401 82.1757 21.1401 82.1757C18.8231 76.2524 15.4721 74.6758 15.4721 74.6758C10.8317 71.4971 15.8168 71.561 15.8168 71.561C20.9422 71.9248 23.6358 76.846 23.6358 76.846C28.1931 84.6778 35.5909 82.4182 38.5015 81.1034C38.961 77.7907 40.2823 75.5311 41.744 74.2482C30.408 72.9524 18.4848 68.5546 18.4848 48.9145C18.4848 43.3168 20.4763 38.7402 23.7443 35.1531C23.2145 33.8574 21.4656 28.6425 24.2421 21.5895C24.2421 21.5895 28.5314 20.2108 38.2845 26.8426C42.3567 25.7064 46.7226 25.1383 51.0694 25.1192C55.4033 25.1447 59.7756 25.7064 63.8542 26.849C73.6009 20.2172 77.8838 21.5959 77.8838 21.5959C80.6667 28.6553 78.9178 33.8637 78.3944 35.1595C81.6688 38.7466 83.6412 43.3232 83.6412 48.9209C83.6412 68.6121 71.7052 72.9461 60.3309 74.2162C62.1628 75.7992 63.7968 78.9268 63.7968 83.7076C63.7968 90.5628 63.733 96.0903 63.733 97.769C63.733 99.1414 64.6521 100.737 67.2436 100.233C87.5092 93.4415 102.126 74.2354 102.126 51.5953C102.126 23.2809 79.2625 0.328125 51.0566 0.328125Z" fill="#5C6BC0"/>
</svg>
