<svg width="100" height="100" viewBox="0 0 100 100" fill="none" xmlns="http://www.w3.org/2000/svg">
<path d="M100.001 35.1876L87.4212 40.2716C87.2323 40.3449 87.0666 40.4679 86.942 40.6277C86.8173 40.7874 86.7381 40.978 86.713 41.179C86.6878 41.3801 86.7175 41.5843 86.799 41.7699C86.8805 41.9554 87.0107 42.1155 87.1758 42.233C88.021 42.7805 88.6785 43.5736 89.0599 44.5057C89.5278 46.0991 89.3503 47.8125 88.5658 49.2761C87.7812 50.7397 86.4526 51.836 84.8667 52.3285C83.3839 53.0758 81.6667 53.2102 80.0858 52.7025C78.5049 52.1948 77.187 51.0858 76.4166 49.6148C76.0408 48.6763 75.9615 47.6452 76.1894 46.6603C76.2223 46.4618 76.2021 46.2582 76.1306 46.0702C76.0591 45.8821 75.939 45.7164 75.7826 45.59C75.6261 45.4636 75.4389 45.381 75.24 45.3506C75.0412 45.3202 74.8378 45.3432 74.6507 45.4171L62.0689 50.5012L56.987 37.9307C56.9085 37.7439 56.882 37.5393 56.9104 37.3386C56.9388 37.138 57.0209 36.9487 57.1482 36.791C57.2754 36.6332 57.4429 36.5129 57.633 36.4426C57.8232 36.3724 58.0287 36.3549 58.2279 36.3921C59.2129 36.6197 60.2439 36.5404 61.1825 36.1648C62.6493 35.3933 63.7548 34.0771 64.2613 32.4991C64.7679 30.9211 64.6352 29.2073 63.8916 27.7262C63.3992 26.1403 62.3028 24.8116 60.8392 24.0271C59.3756 23.2426 57.6622 23.0651 56.0688 23.533C55.1367 23.9144 54.3437 24.5718 53.7961 25.4171C53.6761 25.5788 53.5154 25.7056 53.3303 25.7848C53.1452 25.8639 52.9424 25.8924 52.7427 25.8675C52.5429 25.8425 52.3534 25.7649 52.1935 25.6426C52.0335 25.5204 51.909 25.3579 51.8325 25.1717L46.7461 12.583L76.2462 0.662574C78.481 -0.240805 80.9831 -0.219649 83.2023 0.721388C85.4215 1.66243 87.1761 3.4463 88.0803 5.68075L100.001 35.1876Z" fill="url(#paint0_linear_2963_4545)"/>
<path d="M9.09094 99.9978C6.67987 99.9978 4.36755 99.04 2.66267 97.3352C0.957792 95.6303 0 93.318 0 90.9069V27.2706C0 24.8595 0.957792 22.5472 2.66267 20.8424C4.36755 19.1375 6.67987 18.1797 9.09094 18.1797H40.9092V31.7479C40.9077 31.9499 40.9607 32.1487 41.0627 32.3231C41.1648 32.4976 41.312 32.6413 41.4889 32.739C41.6657 32.8368 41.8657 32.885 42.0677 32.8785C42.2697 32.8721 42.4662 32.8112 42.6365 32.7024C43.4648 32.1292 44.4473 31.8202 45.4547 31.816C47.1072 31.9792 48.6292 32.7856 49.6922 34.0613C50.7553 35.3369 51.274 36.9794 51.1365 38.6342C51.274 40.289 50.7553 41.9315 49.6922 43.2072C48.6292 44.4828 47.1072 45.2892 45.4547 45.4524C44.4473 45.4483 43.4648 45.1393 42.6365 44.566C42.4667 44.4548 42.2697 44.3919 42.0668 44.3843C41.864 44.3767 41.6629 44.4246 41.4852 44.5228C41.3075 44.6209 41.1599 44.7658 41.0585 44.9416C40.957 45.1174 40.9054 45.3176 40.9092 45.5206V59.0888H54.4774C54.6804 59.0849 54.8806 59.1365 55.0564 59.238C55.2323 59.3395 55.3771 59.487 55.4753 59.6647C55.5735 59.8424 55.6213 60.0435 55.6137 60.2464C55.6061 60.4493 55.5432 60.6462 55.432 60.816C54.8588 61.6444 54.5498 62.6269 54.5456 63.6342C54.7088 65.2867 55.5152 66.8087 56.7909 67.8717C58.0665 68.9348 59.709 69.4535 61.3638 69.316C63.0186 69.4535 64.6611 68.9348 65.9368 67.8717C67.2124 66.8087 68.0189 65.2867 68.182 63.6342C68.1779 62.6269 67.8689 61.6444 67.2957 60.816C67.1868 60.6457 67.126 60.4492 67.1195 60.2472C67.1131 60.0453 67.1613 59.8453 67.259 59.6684C67.3568 59.4915 67.5005 59.3443 67.6749 59.2423C67.8494 59.1403 68.0481 59.0872 68.2502 59.0888H81.8184V90.9069C81.8184 93.318 80.8606 95.6303 79.1557 97.3352C77.4509 99.04 75.1386 99.9978 72.7275 99.9978H9.09094Z" fill="url(#paint1_linear_2963_4545)"/>
<path d="M40.9092 99.9951V86.4269C40.912 86.2243 40.8598 86.0246 40.7583 85.8492C40.6568 85.6738 40.5097 85.5291 40.3326 85.4306C40.1555 85.332 39.955 85.2832 39.7524 85.2894C39.5498 85.2955 39.3527 85.3564 39.1819 85.4656C38.3556 86.0437 37.3722 86.3553 36.3637 86.3588C34.7113 86.1956 33.1892 85.3892 32.1262 84.1135C31.0631 82.8379 30.5444 81.1954 30.6819 79.5406C30.5444 77.8858 31.0631 76.2433 32.1262 74.9676C33.1892 73.692 34.7113 72.8856 36.3637 72.7224C37.3726 72.7259 38.3561 73.0384 39.1819 73.6179C39.3527 73.727 39.5498 73.7879 39.7524 73.7941C39.955 73.8002 40.1555 73.7514 40.3326 73.6529C40.5097 73.5543 40.6568 73.4096 40.7583 73.2342C40.8598 73.0588 40.912 72.8592 40.9092 72.6565V59.086H54.4797C54.6824 59.0833 54.882 59.1354 55.0574 59.2369C55.2328 59.3384 55.3775 59.4856 55.4761 59.6627C55.5746 59.8397 55.6234 60.0402 55.6173 60.2428C55.6111 60.4454 55.5502 60.6425 55.4411 60.8133C54.8616 61.6391 54.5491 62.6227 54.5456 63.6315C54.7088 65.284 55.5152 66.806 56.7908 67.869C58.0665 68.9321 59.709 69.4508 61.3638 69.3133C63.0186 69.4508 64.6611 68.9321 65.9368 67.869C67.2124 66.806 68.0189 65.284 68.182 63.6315C68.1789 62.6237 67.8672 61.641 67.2888 60.8156C67.1838 60.6439 67.1262 60.4474 67.1219 60.2462C67.1177 60.045 67.167 59.8462 67.2648 59.6703C67.3626 59.4944 67.5054 59.3476 67.6785 59.2449C67.8516 59.1423 68.0489 59.0874 68.2502 59.086H81.8184V90.9042C81.8184 93.3153 80.8606 95.6276 79.1557 97.3324C77.4509 99.0373 75.1385 99.9951 72.7275 99.9951H40.9092Z" fill="url(#paint2_linear_2963_4545)"/>
<path d="M0 59.0928H13.5682C13.7709 59.0955 13.9705 59.0434 14.1459 58.9419C14.3214 58.8404 14.466 58.6932 14.5646 58.5161C14.6632 58.3391 14.712 58.1386 14.7058 57.936C14.6996 57.7334 14.6387 57.5363 14.5296 57.3655C13.9515 56.5391 13.6398 55.5558 13.6364 54.5473C13.7996 52.8948 14.606 51.3728 15.8816 50.3098C17.1573 49.2467 18.7998 48.728 20.4546 48.8655C22.1094 48.728 23.7519 49.2467 25.0276 50.3098C26.3032 51.3728 27.1097 52.8948 27.2728 54.5473C27.2693 55.5561 26.9568 56.5397 26.3773 57.3655C26.2682 57.5363 26.2073 57.7334 26.2011 57.936C26.195 58.1386 26.2438 58.3391 26.3423 58.5161C26.4409 58.6932 26.5856 58.8404 26.761 58.9419C26.9364 59.0434 27.1361 59.0955 27.3387 59.0928H40.9092V72.6632C40.912 72.8659 40.8598 73.0655 40.7583 73.2409C40.6568 73.4163 40.5097 73.561 40.3326 73.6596C40.1555 73.7581 39.955 73.8069 39.7524 73.8008C39.5498 73.7946 39.3527 73.7337 39.1819 73.6246C38.3561 73.0451 37.3726 72.7326 36.3637 72.7291C34.7113 72.8923 33.1892 73.6987 32.1262 74.9743C31.0632 76.25 30.5444 77.8925 30.6819 79.5473C30.5444 81.2021 31.0632 82.8446 32.1262 84.1202C33.1892 85.3959 34.7113 86.2023 36.3637 86.3655C37.3716 86.3623 38.3543 86.0506 39.1797 85.4723C39.3513 85.3672 39.5478 85.3096 39.7491 85.3054C39.9503 85.3012 40.149 85.3505 40.325 85.4483C40.5009 85.5461 40.6477 85.6888 40.7503 85.862C40.853 86.0351 40.9078 86.2324 40.9092 86.4336V100.002H9.09094C6.67987 100.002 4.36755 99.044 2.66267 97.3392C0.957792 95.6343 0 93.322 0 90.9109V59.0928Z" fill="url(#paint3_linear_2963_4545)"/>
<defs>
<linearGradient id="paint0_linear_2963_4545" x1="65.6757" y1="5.14439" x2="81.3825" y2="43.4967" gradientUnits="userSpaceOnUse">
<stop stop-color="#E85155"/>
<stop offset="1" stop-color="#C21D2C"/>
</linearGradient>
<linearGradient id="paint1_linear_2963_4545" x1="40.9092" y1="17.7729" x2="40.9092" y2="58.6819" gradientUnits="userSpaceOnUse">
<stop stop-color="#34CA82"/>
<stop offset="1" stop-color="#37A477"/>
</linearGradient>
<linearGradient id="paint2_linear_2963_4545" x1="56.2502" y1="60.1406" x2="56.2502" y2="97.486" gradientUnits="userSpaceOnUse">
<stop stop-color="#4793EB"/>
<stop offset="1" stop-color="#2367EC"/>
</linearGradient>
<linearGradient id="paint3_linear_2963_4545" x1="20.4546" y1="59.4178" x2="20.4546" y2="97.6996" gradientUnits="userSpaceOnUse">
<stop stop-color="#FED200"/>
<stop offset="1" stop-color="#F59815"/>
</linearGradient>
</defs>
</svg>
