<svg width="101" height="100" viewBox="0 0 101 100" fill="none" xmlns="http://www.w3.org/2000/svg">
<path fill-rule="evenodd" clip-rule="evenodd" d="M80.0607 57.1884C79.1991 61.3462 75.3633 72.0103 63.1385 77.787L58.2327 72.2679L49.954 80.5956C45.2403 80.5322 40.605 79.3797 36.4105 77.2282C32.216 75.0766 28.5757 71.9843 25.7742 68.1929C26.655 68.4669 27.5645 68.6377 28.4847 68.7019C29.8399 68.7264 31.3086 68.2297 31.3086 65.9424V43.4827C31.3289 42.9047 31.2133 42.3301 30.9712 41.8049C30.7291 41.2797 30.3671 40.8187 29.9145 40.4588C29.4618 40.0988 28.9311 39.8501 28.3649 39.7325C27.7986 39.615 27.2127 39.6318 26.6542 39.7818C22.8215 40.6587 19.7553 50.2282 19.7553 50.2282C19.7127 45.8092 20.6331 41.4338 22.4525 37.4064C24.2718 33.379 26.9466 29.7961 30.2907 26.907C35.9999 22.0686 41.5772 20.3944 45.8147 19.7383C41.6294 22.1238 39.2745 26.0178 39.2745 29.2863C39.2745 34.5264 42.4388 33.907 43.3771 33.1344V63.4649C43.5357 63.846 43.7417 64.2055 43.9903 64.535C44.4094 65.1146 44.9615 65.5853 45.6001 65.9075C46.2387 66.2298 46.9452 66.3942 47.6605 66.3869C50.8309 66.3869 54.9427 62.7689 54.9427 62.7689V38.2089C54.9427 35.7099 53.06 32.6898 51.1743 31.6595C51.1743 31.6595 54.6636 31.0463 57.3619 33.1037C57.8679 32.484 58.4062 31.8914 58.9747 31.3284C65.248 25.1654 71.1688 23.4177 76.0992 22.5408C76.0992 22.5408 67.1245 29.5929 67.1245 39.0367C67.1245 46.0675 67.3054 63.2104 67.3054 63.2104C70.6445 66.4176 75.5902 61.7877 80.0607 57.1884Z" fill="white"/>
<path fill-rule="evenodd" clip-rule="evenodd" d="M50.3485 3.76113e-07C40.4594 0.000606825 30.7926 2.93365 22.5705 8.42822C14.3484 13.9228 7.94025 21.7321 4.15643 30.8687C0.372612 40.0052 -0.616936 50.0586 1.31292 59.7575C3.24278 69.4564 8.00536 78.3653 14.9984 85.3575C21.9915 92.3497 30.9009 97.1112 40.6001 99.0398C50.2992 100.969 60.3525 99.9777 69.4886 96.1928C78.6246 92.4078 86.4332 85.9987 91.9268 77.7759C97.4203 69.5532 100.352 59.886 100.352 49.9969C100.352 43.4307 99.0582 36.9288 96.5452 30.8625C94.0322 24.7962 90.3489 19.2843 85.7056 14.6416C81.0623 9.99887 75.55 6.31625 69.4834 3.80403C63.4168 1.29181 56.9147 -0.000804997 50.3485 3.76113e-07ZM50.3485 97.9978C40.8547 97.9984 31.5739 95.1837 23.6798 89.9097C15.7857 84.6356 9.63286 77.1391 5.99932 68.3682C2.36578 59.5972 1.41477 49.9458 3.26654 40.6343C5.11832 31.3228 9.68971 22.7696 16.4026 16.0563C23.1155 9.34294 31.6685 4.77099 40.9798 2.91862C50.2911 1.06625 59.9427 2.01665 68.7139 5.64963C77.485 9.28261 84.9819 15.435 90.2565 23.3288C95.531 31.2225 98.3463 40.5031 98.3463 49.9969C98.3463 62.727 93.2895 74.9357 84.2883 83.9376C75.287 92.9394 63.0786 97.997 50.3485 97.9978Z" fill="white"/>
</svg>
